<svg width="80" height="20" viewBox="0 0 80 20" fill="none" xmlns="http://www.w3.org/2000/svg">
<path d="M18.5 9.13397C19.1667 9.51887 19.1667 10.4811 18.5 10.866L6.5 17.7942C5.83333 18.1791 5 17.698 5 16.9282L5 3.0718C5 2.302 5.83333 1.82087 6.5 2.20577L18.5 9.13397Z" fill="#FA7C1C"/>
<path d="M48.5 9.13397C49.1667 9.51887 49.1667 10.4811 48.5 10.866L36.5 17.7942C35.8333 18.1791 35 17.698 35 16.9282L35 3.0718C35 2.302 35.8333 1.82087 36.5 2.20577L48.5 9.13397Z" fill="#FA7C1C"/>
<path d="M78.5 9.13397C79.1667 9.51887 79.1667 10.4811 78.5 10.866L66.5 17.7942C65.8333 18.1791 65 17.698 65 16.9282L65 3.0718C65 2.302 65.8333 1.82087 66.5 2.20577L78.5 9.13397Z" fill="#FA7C1C"/>
</svg>
