<svg width="330" height="330" viewBox="0 0 330 330" fill="none" xmlns="http://www.w3.org/2000/svg">
<circle cx="165" cy="165" r="165" fill="#FFF9EE"/>
<path d="M165 0C191.05 3.10646e-07 216.73 6.16803 239.939 17.9994C263.147 29.8307 283.224 46.9891 298.528 68.0704C313.831 89.1518 323.925 113.557 327.984 139.289C332.044 165.021 329.953 191.348 321.882 216.117C313.812 240.886 299.992 263.391 281.552 281.793C263.113 300.194 240.579 313.968 215.794 321.987C191.009 330.007 164.677 332.043 138.953 327.931C113.23 323.819 88.8454 313.674 67.7956 298.328L165 165V0Z" fill="#FFF9EE"/>
<path d="M165 0C191.05 3.10646e-07 216.73 6.16803 239.939 17.9994C263.147 29.8307 283.224 46.9891 298.528 68.0704C313.831 89.1518 323.925 113.557 327.984 139.289C332.044 165.021 329.953 191.348 321.882 216.117C313.812 240.886 299.992 263.391 281.552 281.793C263.113 300.194 240.579 313.968 215.794 321.987C191.009 330.007 164.677 332.043 138.953 327.931C113.23 323.819 88.8454 313.674 67.7956 298.328L165 165V0Z" fill="url(#paint0_linear_1082_21895)"/>
<path d="M70.3434 300.149C40.4965 279.244 18.4092 249.047 7.52802 214.27C-3.35312 179.493 -2.41593 142.093 10.1934 107.904L165 165L70.3434 300.149Z" fill="#FFE7A6"/>
<defs>
<linearGradient id="paint0_linear_1082_21895" x1="165" y1="0" x2="165" y2="330" gradientUnits="userSpaceOnUse">
<stop stop-color="#FA7C1C"/>
<stop offset="1" stop-color="#FF4341"/>
</linearGradient>
</defs>
</svg>
