<svg width="330" height="330" viewBox="0 0 330 330" fill="none" xmlns="http://www.w3.org/2000/svg">
<circle cx="165" cy="165" r="165" fill="#FFF9EE"/>
<path d="M165 0C202.062 4.41961e-07 238.045 12.4778 267.151 35.4227C296.256 58.3676 316.789 90.4434 325.441 126.482C334.093 162.52 330.36 200.421 314.844 234.079C299.327 267.737 272.931 295.19 239.908 312.016C206.886 328.842 169.16 334.06 132.81 326.83C96.4601 319.599 63.6029 300.341 39.533 272.159C15.4631 243.977 1.58225 208.511 0.127207 171.478C-1.32784 134.444 9.72764 97.9993 31.5122 68.0154L165 165L165 0Z" fill="url(#paint0_linear_1315_6371)"/>
<defs>
<linearGradient id="paint0_linear_1315_6371" x1="165" y1="0" x2="165" y2="330" gradientUnits="userSpaceOnUse">
<stop stop-color="#FA7C1C"/>
<stop offset="1" stop-color="#FF4341"/>
</linearGradient>
</defs>
</svg>
