<svg width="80" height="80" viewBox="0 0 80 80" fill="none" xmlns="http://www.w3.org/2000/svg">
<path d="M24.098 32.1337C26.698 31.7004 29.4647 30.3004 31.898 28.2337C34.3314 26.1671 36.1647 23.6671 37.0314 21.2004C38.198 17.8671 37.198 15.9671 36.4981 15.1337C35.798 14.3004 34.0981 13.0004 30.5981 13.6004C27.9981 14.0337 25.2314 15.4337 22.798 17.5004C20.3647 19.5671 18.5314 22.0671 17.6647 24.5337C16.498 27.8671 17.498 29.7671 18.198 30.6004C18.7647 31.2671 20.0314 32.2671 22.398 32.2671C22.898 32.2671 23.4647 32.2337 24.098 32.1004V32.1337ZM22.398 26.2004C22.9647 24.5671 24.298 22.8004 26.0314 21.3337C27.7647 19.8671 29.7647 18.8337 31.4647 18.5337C31.998 18.4337 32.3314 18.4337 32.5647 18.4671C32.5647 18.7004 32.498 19.0337 32.298 19.5337C31.7314 21.1671 30.3981 22.9337 28.6647 24.4004C26.9314 25.8671 24.9314 26.9004 23.2314 27.1671C22.698 27.2671 22.3314 27.2671 22.1314 27.2337C22.1314 27.0004 22.198 26.6671 22.398 26.1671V26.2004Z" fill="#262626"/>
<path d="M69.101 47.4665C66.1677 43.9999 61.3344 43.3332 57.4344 45.2665L55.5344 43.0332C60.201 34.5665 59.501 23.7665 52.901 15.9665L45.501 7.19987L45.2344 6.86654L44.9011 6.59987L44.6677 6.39987C44.401 6.16654 44.0344 5.89987 43.6344 5.66654C43.5344 5.59987 43.4677 5.56654 43.3677 5.49987C42.7677 5.16654 42.0344 4.86654 41.2344 4.59987C40.9344 4.49987 40.6344 4.4332 40.3344 4.36654C39.701 4.2332 38.9677 4.1332 38.201 4.09987C37.901 4.09987 37.6344 4.0332 37.3344 4.0332C37.2677 4.0332 37.2344 4.0332 37.1677 4.0332C36.2344 4.0332 35.201 4.1332 34.1677 4.29987C34.0344 4.29987 33.9344 4.29987 33.8344 4.29987C33.7344 4.29987 33.6344 4.36654 33.5344 4.36654C33.3344 4.39987 33.1344 4.4332 32.9344 4.46654C32.401 4.56654 31.8344 4.79987 31.3011 4.9332C30.701 5.09987 30.1344 5.2332 29.5344 5.4332C28.8677 5.66654 28.1677 5.99987 27.501 6.29987C26.901 6.56654 26.2677 6.79987 25.6677 7.09987C24.9344 7.46654 24.2344 7.89987 23.5344 8.3332C22.9677 8.66654 22.4344 8.96654 21.8677 9.29987C20.6344 10.1332 19.401 11.0332 18.2344 12.0332C18.2344 12.0332 18.0677 12.1999 18.001 12.2665C16.9344 13.1999 15.901 14.1665 14.9344 15.1665C14.4677 15.6332 14.101 16.1332 13.701 16.6332C13.1677 17.2665 12.601 17.8665 12.1344 18.5332C11.7344 19.0999 11.401 19.6332 11.0344 20.1999C10.6344 20.8332 10.201 21.4332 9.86772 22.0665C9.56772 22.5999 9.33438 23.1665 9.06772 23.6999C8.83438 24.1999 8.53438 24.7332 8.33438 25.2332C8.26772 25.4332 8.20105 25.5999 8.13438 25.7999C8.10105 25.8999 8.03438 25.9999 8.00105 26.0999C7.90105 26.3999 7.83438 26.6999 7.73438 26.9665C7.66772 27.1999 7.60105 27.4332 7.53438 27.6665C7.40105 28.1332 7.33438 28.5665 7.23438 29.0332C7.23438 29.1999 7.16772 29.3999 7.13438 29.5665C6.80105 31.5999 6.93438 33.4332 7.40105 35.0665C7.43438 35.2332 7.50105 35.3665 7.53438 35.5332C7.60105 35.7332 7.66772 35.9332 7.76772 36.0999C7.90105 36.4332 8.06772 36.7332 8.20105 36.9999C8.20105 37.0332 8.23438 37.0999 8.26772 37.1332L8.40105 37.3665L8.60105 37.7332L8.86772 38.0665L9.03438 38.2665L16.2677 46.8332C20.8344 52.2332 27.501 55.3332 34.5677 55.3332C37.301 55.3332 39.9677 54.8332 42.5344 53.9332L44.4344 56.1665C41.901 59.6999 41.7344 64.5665 44.6677 68.0332C48.1677 72.1665 54.3344 72.3332 58.4344 68.8665C60.1344 67.3999 61.2344 65.4999 61.7344 63.4999C63.801 63.3332 65.8677 62.5665 67.5677 61.1332C71.6677 57.6665 72.5344 51.5332 69.0344 47.3999L69.101 47.4665ZM12.901 35.0999C12.6677 34.8332 12.501 34.4665 12.3677 34.0999C12.301 33.9332 12.2344 33.7999 12.1677 33.5999C12.101 33.3665 12.0677 33.0665 12.0344 32.7999C12.001 32.5332 11.9344 32.2665 11.9344 31.9332C11.9344 31.6999 11.9677 31.4332 12.001 31.1999C12.001 30.7999 12.0677 30.3665 12.1677 29.8999C12.2344 29.6332 12.3344 29.3332 12.401 29.0665C12.5344 28.5665 12.6677 28.0665 12.8677 27.5332C13.101 26.8999 13.401 26.2665 13.7344 25.6332C13.901 25.2999 14.0344 24.9665 14.2344 24.6332C14.701 23.8332 15.2344 23.0332 15.7677 22.2332C15.901 22.0665 16.001 21.8665 16.1344 21.6999C17.601 19.6999 19.401 17.7999 21.4344 16.0665C21.4677 16.0665 21.501 15.9999 21.5344 15.9665C21.7677 15.7665 21.9677 15.6332 22.201 15.4665C24.0677 13.9665 26.0677 12.6332 28.0677 11.5999C28.2677 11.4999 28.4344 11.4332 28.6344 11.3665C29.5344 10.9332 30.4344 10.5332 31.3011 10.2332C31.6677 10.0999 32.001 10.0332 32.3344 9.9332C33.0677 9.69987 33.801 9.49987 34.5344 9.36654C34.7344 9.3332 34.9011 9.29987 35.0677 9.26654C35.701 9.16654 36.2677 9.09987 36.8344 9.09987C36.9344 9.09987 37.0344 9.09987 37.1344 9.09987C37.7677 9.09987 38.301 9.1332 38.8344 9.2332C39.001 9.2332 39.1677 9.29987 39.3344 9.3332C39.7344 9.4332 40.1344 9.5332 40.4677 9.69987C40.5344 9.7332 40.6344 9.76654 40.701 9.79987C41.1344 10.0332 41.5344 10.3332 41.801 10.6665C43.001 12.0999 43.0677 14.7332 41.9677 17.8999C40.5344 21.9665 37.3344 26.2999 33.1677 29.8332C29.001 33.3332 24.201 35.7665 19.9344 36.4999C16.6344 37.0665 14.0344 36.5665 12.8344 35.1332L12.901 35.0999ZM20.1344 43.6665L18.401 41.6332C19.201 41.5999 20.001 41.5665 20.8677 41.3999C26.0344 40.4999 31.5677 37.7332 36.4677 33.5999C41.3677 29.4665 45.001 24.4665 46.7344 19.5332C47.001 18.7332 47.2344 17.9665 47.4011 17.1999L49.101 19.1999C55.8677 27.1999 54.8677 39.1665 46.8677 45.8999C43.301 48.8999 38.9677 50.3665 34.6344 50.3665C29.2344 50.3665 23.901 48.0665 20.1344 43.6332V43.6665ZM48.501 64.8665C46.9677 63.0665 47.1677 60.0665 49.3677 58.1999L51.2677 56.5999L49.6677 54.6999L47.501 52.1332C48.4677 51.4999 49.4011 50.8332 50.3344 50.0665C51.2344 49.2999 52.0677 48.4999 52.8344 47.6332L55.001 50.1999L56.5344 52.0332L58.4344 50.5665L58.9677 50.1665C61.1344 48.6665 63.8344 49.0665 65.2677 50.7332C66.801 52.5332 66.601 55.5332 64.401 57.3999C63.101 58.4999 61.501 58.8332 60.1011 58.5665L57.0344 57.9665L57.1344 61.0999C57.1677 62.5332 56.5677 64.0665 55.2677 65.1332C53.0677 66.9999 50.0677 66.6999 48.5344 64.8999L48.501 64.8665Z" fill="#262626"/>
</svg>
