<svg width="80" height="80" viewBox="0 0 80 80" fill="none" xmlns="http://www.w3.org/2000/svg">
<g clip-path="url(#clip0_1063_19200)">
<path d="M66.1318 23.3334H59.6651L65.2651 14.6668C66.1318 13.3001 65.7651 11.5001 64.3984 10.6334C63.0318 9.76677 61.2318 10.1334 60.3651 11.5001L53.6651 21.8668L27.0984 11.3334C26.6984 11.1668 26.2651 11.1334 25.8651 11.1668C25.8651 11.1668 25.7984 11.1668 25.7651 11.1668C24.1651 11.1668 22.8318 12.4668 22.8318 14.1001V23.3668H13.8984V38.2334H20.2651L25.4651 69.8334H54.6318L59.7984 38.2334H66.1651V23.3668L66.1318 23.3334ZM28.6651 18.2668L41.4651 23.3334H28.6651V18.2668ZM19.7318 29.1668H60.2984V32.3668H19.7318V29.1668ZM30.3984 63.9668L28.7651 54.0001H32.9651C34.0984 56.7668 36.8318 58.7334 40.0318 58.7334C43.2318 58.7334 45.9318 56.7668 47.0984 54.0001H51.2984L49.6651 63.9668H30.4318H30.3984ZM38.1984 51.0668C38.1984 50.0668 38.9984 49.2668 39.9984 49.2668C40.9984 49.2668 41.7984 50.0668 41.7984 51.0668C41.7984 52.0668 40.9984 52.8668 39.9984 52.8668C38.9984 52.8668 38.1984 52.0668 38.1984 51.0668ZM52.2318 48.1334H47.0651C45.9318 45.3668 43.1984 43.4001 39.9984 43.4001C36.7984 43.4001 34.0984 45.3668 32.9318 48.1334H27.7651L26.1318 38.1668H53.8318L52.1984 48.1334H52.2318Z" fill="#262626"/>
</g>
<defs>
<clipPath id="clip0_1063_19200">
<rect width="80" height="80" fill="white"/>
</clipPath>
</defs>
</svg>
