<svg width="80" height="80" viewBox="0 0 80 80" fill="none" xmlns="http://www.w3.org/2000/svg">
<path d="M40.1667 76.6663L24.5 46.6663C20.5556 46.833 17.1528 45.6941 14.2917 43.2497C11.4306 40.8052 10 37.4997 10 33.333C10 30.4997 10.8194 27.9441 12.4583 25.6663C14.0972 23.3886 16.1667 21.7775 18.6667 20.833C19.6667 15.7775 22.1528 11.5969 26.125 8.29134C30.0972 4.98579 34.7222 3.33301 40 3.33301C45.2778 3.33301 49.9028 4.98579 53.875 8.29134C57.8472 11.5969 60.3333 15.7775 61.3333 20.833C63.8333 21.7775 65.9028 23.3886 67.5417 25.6663C69.1806 27.9441 70 30.4997 70 33.333C70 37.4997 68.5278 40.8052 65.5833 43.2497C62.6389 45.6941 59.3333 46.833 55.6667 46.6663L40.1667 76.6663ZM23.3333 39.9997C24.1667 39.9997 24.9861 39.8608 25.7917 39.583C26.5972 39.3052 27.3333 38.833 28 38.1663L29.8333 36.333L32 37.6663C33.1667 38.4441 34.4306 39.0275 35.7917 39.4163C37.1528 39.8052 38.5556 39.9997 40 39.9997C41.4444 39.9997 42.8472 39.8052 44.2083 39.4163C45.5694 39.0275 46.8333 38.4441 48 37.6663L50.1667 36.333L52 38.1663C52.6667 38.833 53.4028 39.3052 54.2083 39.583C55.0139 39.8608 55.8333 39.9997 56.6667 39.9997C58.5 39.9997 60.0694 39.3469 61.375 38.0413C62.6806 36.7358 63.3333 35.1663 63.3333 33.333C63.3333 31.6663 62.8056 30.208 61.75 28.958C60.6944 27.708 59.3333 26.9441 57.6667 26.6663L55.1667 26.333L55 23.6663C54.7222 19.833 53.1389 16.5969 50.25 13.958C47.3611 11.3191 43.9444 9.99967 40 9.99967C36.0556 9.99967 32.6389 11.3191 29.75 13.958C26.8611 16.5969 25.2778 19.833 25 23.6663L24.8333 26.333L22.3333 26.833C20.6667 27.1663 19.3056 27.9163 18.25 29.083C17.1944 30.2497 16.6667 31.6663 16.6667 33.333C16.6667 35.1663 17.3194 36.7358 18.625 38.0413C19.9306 39.3469 21.5 39.9997 23.3333 39.9997ZM40.1667 62.1663L49.1667 44.6663C47.8333 45.333 46.3889 45.833 44.8333 46.1663C43.2778 46.4997 41.6667 46.6663 40 46.6663C38.5 46.6663 36.9861 46.4997 35.4583 46.1663C33.9306 45.833 32.4444 45.333 31 44.6663L40.1667 62.1663Z" fill="#262626"/>
</svg>
