<svg width="80" height="80" viewBox="0 0 80 80" fill="none" xmlns="http://www.w3.org/2000/svg">
<g clip-path="url(#clip0_1062_17865)">
<path d="M12.8007 33.9666C12.0673 33.9666 11.334 33.6999 10.7673 33.1666C9.60067 32.0332 9.56733 30.1999 10.7007 29.0332L12.3007 27.3666C15.034 24.5332 18.1673 22.1332 21.634 20.2332C25.1673 18.2999 29.1673 17.2666 33.2007 17.2332C36.7673 17.1999 40.2007 17.6332 43.6007 18.5332L47.6007 19.5999C49.1673 19.9999 50.1007 21.5999 49.6673 23.1666C49.2673 24.7332 47.6673 25.6332 46.1007 25.2332L42.1007 24.1666C39.2007 23.3999 36.2007 23.0666 33.234 23.0332C30.1673 23.0332 27.1007 23.8666 24.434 25.3332C21.5007 26.9332 18.834 28.9999 16.5007 31.3999L14.9007 33.0666C14.334 33.6666 13.5673 33.9666 12.8007 33.9666Z" fill="#262626"/>
<path d="M23.3007 37.2004C22.5673 37.2004 21.834 36.9337 21.2673 36.4004C20.1007 35.2671 20.0673 33.4337 21.2007 32.2671L22.0007 31.4337C23.4673 29.9004 25.1673 28.6004 27.0007 27.6004C28.9673 26.5004 31.234 25.9337 33.4673 25.9004C35.4007 25.9004 37.234 26.1337 39.0673 26.6004L41.0673 27.1337C42.634 27.5337 43.5673 29.1337 43.134 30.7004C42.734 32.2671 41.134 33.2004 39.5673 32.7671L37.5673 32.2337C36.234 31.8671 34.834 31.7004 33.534 31.7337C32.234 31.7337 30.9673 32.0671 29.8007 32.7004C28.4673 33.4337 27.234 34.3671 26.2007 35.4671L25.4007 36.3004C24.834 36.9004 24.0673 37.2004 23.3007 37.2004Z" fill="#262626"/>
<path d="M76.8656 11.5002C75.599 10.5002 73.7656 10.7002 72.7656 11.9668L51.6656 38.6335H47.5323L66.3656 14.8668C67.3656 13.6002 67.1656 11.7668 65.899 10.7668C64.6323 9.76683 62.799 9.96683 61.799 11.2335L40.099 38.6335H6.76562V41.5668C6.76562 48.7335 8.73229 55.6668 12.4323 61.6002C15.0656 65.8335 18.599 69.5002 22.599 72.1335L23.3323 72.6335H56.699L57.4323 72.1335C61.4323 69.4668 64.9323 65.8335 67.599 61.5668C71.299 55.6335 73.2656 48.7002 73.2656 41.5335V38.6002H59.1323L77.3656 15.5335C78.3656 14.2668 78.1656 12.4335 76.899 11.4335L76.8656 11.5002ZM54.899 66.8002H25.099C23.5656 65.7002 22.099 64.4002 20.7656 62.9668H59.199C57.8656 64.4002 56.4323 65.7002 54.8656 66.8002H54.899ZM63.3656 57.1335H16.6323C14.4656 53.2668 13.1323 48.9668 12.7323 44.4668H67.299C66.899 48.9668 65.5323 53.2668 63.399 57.1335H63.3656Z" fill="#262626"/>
</g>
<defs>
<clipPath id="clip0_1062_17865">
<rect width="80" height="80" fill="white"/>
</clipPath>
</defs>
</svg>
