<svg width="80" height="80" viewBox="0 0 80 80" fill="none" xmlns="http://www.w3.org/2000/svg">
<g clip-path="url(#clip0_1062_17862)">
<path d="M71.0341 22.3669L65.7674 22.4336L71.5008 16.5669C72.6341 15.4336 72.6008 13.5669 71.4675 12.4336C70.3341 11.3002 68.4675 11.3336 67.3341 12.4669L61.6341 18.3002L61.5674 13.0002C61.5674 11.4002 60.2008 10.0669 58.6341 10.1002C57.0341 10.1002 55.7341 11.4336 55.7341 13.0336V17.3336L54.2341 15.5002C53.1675 14.2336 51.6341 13.5002 49.9674 13.5002C48.3008 13.5669 46.7341 14.2002 45.6674 15.4669L7.40078 60.6336C5.60078 62.7336 5.60078 65.7002 7.40078 67.8336C8.50078 69.1669 10.0674 69.8669 11.6674 69.8669C12.6341 69.8669 13.6008 69.6002 14.5008 69.1002L65.7341 39.4669C67.1674 38.6336 68.1674 37.2336 68.4341 35.6002C68.7341 33.9669 68.2674 32.3002 67.2341 31.0336L64.9341 28.2669L71.1341 28.2002C72.7341 28.2002 74.0341 26.8669 74.0341 25.2669C74.0341 23.6669 72.6008 22.4002 71.1008 22.3669H71.0341ZM53.8675 39.5669L48.2674 32.9002C47.2341 31.6669 45.4008 31.5002 44.1674 32.5336C42.9341 33.5669 42.7675 35.4002 43.8008 36.6336L48.7341 42.5002L45.4675 44.3669L42.1674 40.3002C41.1674 39.0669 39.3008 38.8669 38.0675 39.8669C36.8008 40.9002 36.6341 42.7336 37.6675 43.9669L40.4008 47.3002L12.7674 63.2669L49.9341 19.5002L62.6008 34.5336L53.8675 39.6002V39.5669Z" fill="#262626"/>
</g>
<defs>
<clipPath id="clip0_1062_17862">
<rect width="80" height="80" fill="white"/>
</clipPath>
</defs>
</svg>
