<svg width="80" height="80" viewBox="0 0 80 80" fill="none" xmlns="http://www.w3.org/2000/svg">
<g clip-path="url(#clip0_1062_17856)">
<path d="M72.0013 38.667C55.1013 38.667 41.3346 24.9003 41.3346 8.00033C41.3346 7.26699 40.7346 6.66699 40.0013 6.66699C39.268 6.66699 38.668 7.26699 38.668 8.00033C38.668 24.9003 24.9013 38.667 8.0013 38.667C7.26797 38.667 6.66797 39.267 6.66797 40.0003C6.66797 40.7337 7.26797 41.3337 8.0013 41.3337C24.9013 41.3337 38.668 55.1003 38.668 72.0003C38.668 72.7337 39.268 73.3337 40.0013 73.3337C40.7346 73.3337 41.3346 72.7337 41.3346 72.0003C41.3346 55.1003 55.1013 41.3337 72.0013 41.3337C72.7346 41.3337 73.3346 40.7337 73.3346 40.0003C73.3346 39.267 72.7346 38.667 72.0013 38.667Z" fill="#231F20"/>
</g>
<defs>
<clipPath id="clip0_1062_17856">
<rect width="80" height="80" fill="white"/>
</clipPath>
</defs>
</svg>
