<svg width="1326" height="274" viewBox="0 0 1326 274" fill="none" xmlns="http://www.w3.org/2000/svg">
<mask id="path-1-inside-1_1359_18669" fill="white">
<path d="M0 0H1326V273H0V0Z"/>
</mask>
<path d="M0 0V1H1326V0V-1H0V0ZM1326 273V272H0V273V274H1326V273Z" fill="#7F7F7D" mask="url(#path-1-inside-1_1359_18669)"/>
<path opacity="0.1" d="M122.328 137.5H0V274H1326V135L1203.67 17L924.465 17.0009L663.934 50.0007L383.793 137.5H122.328Z" fill="#0D70F1"/>
<path opacity="0.15" d="M387.625 219L121.585 34L0 137V273H1325.53L1326 135C1326 135 1251.43 194.504 1203.95 240L925.773 34L667.201 88L387.625 219Z" fill="#FA7C1C"/>
<path d="M130 36C130 40.4183 126.642 44 122.5 44C118.358 44 115 40.4183 115 36C115 31.5817 118.358 28 122.5 28C126.642 28 130 31.5817 130 36Z" fill="#FA7C1C"/>
<path d="M395 218C395 222.418 391.642 226 387.5 226C383.358 226 380 222.418 380 218C380 213.582 383.358 210 387.5 210C391.642 210 395 213.582 395 218Z" fill="#FA7C1C"/>
<path d="M395 137C395 141.418 391.642 145 387.5 145C383.358 145 380 141.418 380 137C380 132.582 383.358 129 387.5 129C391.642 129 395 132.582 395 137Z" fill="#0D70F1"/>
<path d="M130 137C130 141.418 126.642 145 122.5 145C118.358 145 115 141.418 115 137C115 132.582 118.358 129 122.5 129C126.642 129 130 132.582 130 137Z" fill="#0D70F1"/>
<path d="M675 89C675 93.4183 671.642 97 667.5 97C663.358 97 660 93.4183 660 89C660 84.5817 663.358 81 667.5 81C671.642 81 675 84.5817 675 89Z" fill="#FA7C1C"/>
<path d="M675 50C675 54.4183 671.642 58 667.5 58C663.358 58 660 54.4183 660 50C660 45.5817 663.358 42 667.5 42C671.642 42 675 45.5817 675 50Z" fill="#0D70F1"/>
<path d="M933 34C933 38.4183 929.642 42 925.5 42C921.358 42 918 38.4183 918 34C918 29.5817 921.358 26 925.5 26C929.642 26 933 29.5817 933 34Z" fill="#FA7C1C"/>
<path d="M933 16C933 20.4183 929.642 24 925.5 24C921.358 24 918 20.4183 918 16C918 11.5817 921.358 8 925.5 8C929.642 8 933 11.5817 933 16Z" fill="#0D70F1"/>
<path d="M1212 239C1212 243.418 1208.64 247 1204.5 247C1200.36 247 1197 243.418 1197 239C1197 234.582 1200.36 231 1204.5 231C1208.64 231 1212 234.582 1212 239Z" fill="#FA7C1C"/>
<path d="M1212 18C1212 22.4183 1208.64 26 1204.5 26C1200.36 26 1197 22.4183 1197 18C1197 13.5817 1200.36 10 1204.5 10C1208.64 10 1212 13.5817 1212 18Z" fill="#0D70F1"/>
</svg>
