<svg width="516" height="250" viewBox="0 0 516 250" fill="none" xmlns="http://www.w3.org/2000/svg">
<g clip-path="url(#clip0_1042_4569)">
<path d="M386.323 121.993V187.761H516.001V250H266.605V187.761H319.966V121.993H386.323Z" fill="#FCFAF9"/>
<path d="M407.548 11.0161C482.135 11.0161 505.027 29.1581 505.027 87.3432C505.027 111.696 502.284 141.475 496.112 176.942L425.411 171.516C429.526 139.579 431.126 124.706 431.126 110.062C431.126 89.5006 425.64 84.0744 401.376 84.0744C377.113 84.0744 346.71 86.7875 282.867 93.2598L277.609 24.5163C327.704 15.5924 370.712 10.9834 407.548 10.9834V11.0161Z" fill="#FCFAF9"/>
<path d="M251.092 4.02051H184.082V170.11H251.092V4.02051Z" fill="#FCFAF9"/>
<path d="M89.5107 0C138.946 9.96886e-05 179.021 35.885 179.021 80.1514C179.021 124.418 138.946 160.304 89.5107 160.304C40.0754 160.304 0 124.418 0 80.1514C0.00018419 35.885 40.0756 0 89.5107 0ZM89.8027 44.293C89.77 43.9335 89.2798 43.9335 89.2471 44.293C87.0591 62.8926 72.2991 77.6682 53.7178 79.8584C53.3586 79.8911 53.3586 80.3814 53.7178 80.4141C72.299 82.6043 87.0591 97.379 89.2471 115.979C89.2797 116.338 89.77 116.338 89.8027 115.979C91.9907 97.3789 106.752 82.6042 125.333 80.4141C125.692 80.3811 125.692 79.8915 125.333 79.8584C106.752 77.6683 91.9907 62.8926 89.8027 44.293Z" fill="#FCFAF9"/>
<path d="M108.909 247.712C116.42 228.557 125.727 214.043 129.711 215.318C133.532 216.527 131.05 231.858 124.225 250.033H240.383C240.383 204.956 188.459 168.41 124.388 168.41C60.3164 168.41 8.42578 204.923 8.42578 250H108.027C108.321 249.248 108.582 248.464 108.909 247.679V247.712Z" fill="#FCFAF9"/>
</g>
<defs>
<clipPath id="clip0_1042_4569">
<rect width="516" height="250" fill="white"/>
</clipPath>
</defs>
</svg>
