<svg width="516" height="103" viewBox="0 0 516 103" fill="none" xmlns="http://www.w3.org/2000/svg">
<path d="M88.1517 33.2743H37.9461V40.2796H86.9842V63.6308H37.9461V70.6361H88.7355V101.576H0V3.50161H88.1517V33.2743Z" fill="#FCFAF9"/>
<path d="M176.281 3.50161L205.47 101.576H164.605L161.336 87.5657H135.182L131.913 101.576H91.0478L120.237 3.50161H176.281ZM141.72 59.5443H154.797L148.259 31.6397L141.72 59.5443Z" fill="#FCFAF9"/>
<path d="M265.075 101.576H225.378V38.5283H197.356V3.50161H293.097V38.5283H265.075V101.576Z" fill="#FCFAF9"/>
<path d="M365.441 47.8688H400.468V101.576H350.496C312.083 101.576 295.97 84.6468 295.97 51.3714C295.97 18.0961 312.083 1.1665 350.496 1.1665C368.36 1.1665 381.67 2.68432 395.798 5.25295L393.463 37.0105C380.97 35.7262 368.36 34.4419 355.867 34.4419C344.191 34.4419 336.836 39.6959 336.836 51.3714C336.836 63.047 344.191 68.301 355.867 68.301H365.441V47.8688Z" fill="#FCFAF9"/>
<path d="M461.265 0C491.491 0 515.995 22.87 515.995 51.0811C515.995 79.2919 491.491 102.161 461.265 102.161C431.038 102.161 406.535 79.2918 406.535 51.0811C406.535 22.8702 431.038 0.000241663 461.265 0ZM461.44 28.8047C461.419 28.5672 461.095 28.5672 461.073 28.8047C459.626 41.0915 449.866 50.8519 437.579 52.2988C437.342 52.3204 437.342 52.6444 437.579 52.666C449.866 54.113 459.626 63.8741 461.073 76.1611C461.095 76.3981 461.418 76.398 461.44 76.1611C462.887 63.874 472.648 54.1129 484.936 52.666C485.173 52.6444 485.173 52.3204 484.936 52.2988C472.648 50.8519 462.887 41.0916 461.44 28.8047Z" fill="#FCFAF9"/>
</svg>
