<svg width="2478" height="136" viewBox="0 0 2478 136" fill="none" xmlns="http://www.w3.org/2000/svg">
<g clip-path="url(#clip0_1290_6308)">
<path d="M116.001 66.667C99.1013 66.667 85.3346 52.9003 85.3346 36.0003C85.3346 35.267 84.7346 34.667 84.0013 34.667C83.268 34.667 82.668 35.267 82.668 36.0003C82.668 52.9003 68.9013 66.667 52.0013 66.667C51.268 66.667 50.668 67.267 50.668 68.0003C50.668 68.7337 51.268 69.3337 52.0013 69.3337C68.9013 69.3337 82.668 83.1003 82.668 100C82.668 100.734 83.268 101.334 84.0013 101.334C84.7346 101.334 85.3346 100.734 85.3346 100C85.3346 83.1003 99.1013 69.3337 116.001 69.3337C116.735 69.3337 117.335 68.7337 117.335 68.0003C117.335 67.267 116.735 66.667 116.001 66.667Z" fill="#FCFAF9"/>
</g>
<path d="M215.143 59.2856H190.572V62.7142H214.572V74.1428H190.572V77.5714H215.429V92.7143H172V44.7141H215.143V59.2856Z" fill="#FCFAF9"/>
<path d="M258.276 44.7141L272.561 92.7143H252.561L250.961 85.8571H238.161L236.561 92.7143H216.561L230.847 44.7141H258.276ZM241.361 72.1428H247.761L244.561 58.4856L241.361 72.1428Z" fill="#FCFAF9"/>
<path d="M301.734 92.7143H282.305V61.8571H268.59V44.7141H315.448V61.8571H301.734V92.7143Z" fill="#FCFAF9"/>
<path d="M350.855 66.4285H367.998V92.7143H343.54C324.74 92.7143 316.854 84.4285 316.854 68.1428C316.854 51.857 324.74 43.5713 343.54 43.5713C352.283 43.5713 358.798 44.3141 365.712 45.5713L364.569 61.1142C358.455 60.4856 352.283 59.857 346.169 59.857C340.455 59.857 336.854 62.4285 336.854 68.1428C336.854 73.8571 340.455 76.4285 346.169 76.4285H350.855V66.4285Z" fill="#FCFAF9"/>
<path d="M397.75 43C412.543 43 424.536 54.1929 424.536 68C424.536 81.8072 412.544 93 397.75 93C382.957 92.9998 370.965 81.807 370.965 68C370.965 54.193 382.957 43.0002 397.75 43ZM397.836 57.0977C397.825 56.9814 397.667 56.9814 397.656 57.0977C396.948 63.1111 392.171 67.8876 386.157 68.5957C386.041 68.6065 386.041 68.7645 386.157 68.7754C392.171 69.4835 396.948 74.2609 397.656 80.2744C397.667 80.3907 397.825 80.3907 397.836 80.2744C398.544 74.2609 403.321 69.4835 409.335 68.7754C409.451 68.7648 409.451 68.6063 409.335 68.5957C403.321 67.8875 398.544 63.1111 397.836 57.0977Z" fill="#FCFAF9"/>
<g clip-path="url(#clip1_1290_6308)">
<path d="M544.54 66.667C527.64 66.667 513.874 52.9003 513.874 36.0003C513.874 35.267 513.274 34.667 512.54 34.667C511.807 34.667 511.207 35.267 511.207 36.0003C511.207 52.9003 497.44 66.667 480.54 66.667C479.807 66.667 479.207 67.267 479.207 68.0003C479.207 68.7337 479.807 69.3337 480.54 69.3337C497.44 69.3337 511.207 83.1003 511.207 100C511.207 100.734 511.807 101.334 512.54 101.334C513.274 101.334 513.874 100.734 513.874 100C513.874 83.1003 527.64 69.3337 544.54 69.3337C545.274 69.3337 545.874 68.7337 545.874 68.0003C545.874 67.267 545.274 66.667 544.54 66.667Z" fill="#FCFAF9"/>
</g>
<g clip-path="url(#clip2_1290_6308)">
<path d="M666.671 51.3334H660.204L665.804 42.6668C666.671 41.3001 666.304 39.5001 664.937 38.6334C663.571 37.7668 661.771 38.1334 660.904 39.5001L654.204 49.8668L627.637 39.3334C627.237 39.1668 626.804 39.1334 626.404 39.1668C626.404 39.1668 626.337 39.1668 626.304 39.1668C624.704 39.1668 623.371 40.4668 623.371 42.1001V51.3668H614.438V66.2334H620.804L626.004 97.8334H655.171L660.338 66.2334H666.704V51.3668L666.671 51.3334ZM629.204 46.2668L642.004 51.3334H629.204V46.2668ZM620.271 57.1668H660.837V60.3668H620.271V57.1668ZM630.937 91.9668L629.304 82.0001H633.504C634.638 84.7668 637.371 86.7334 640.571 86.7334C643.771 86.7334 646.471 84.7668 647.637 82.0001H651.837L650.204 91.9668H630.971H630.937ZM638.737 79.0668C638.737 78.0668 639.537 77.2668 640.537 77.2668C641.537 77.2668 642.337 78.0668 642.337 79.0668C642.337 80.0668 641.537 80.8668 640.537 80.8668C639.537 80.8668 638.737 80.0668 638.737 79.0668ZM652.771 76.1334H647.604C646.471 73.3668 643.737 71.4001 640.537 71.4001C637.337 71.4001 634.637 73.3668 633.471 76.1334H628.304L626.671 66.1668H654.371L652.737 76.1334H652.771Z" fill="#FCFAF9"/>
</g>
<path d="M768.706 104.666L753.039 74.6663C749.095 74.833 745.692 73.6941 742.831 71.2497C739.97 68.8052 738.539 65.4997 738.539 61.333C738.539 58.4997 739.359 55.9441 740.997 53.6663C742.636 51.3886 744.706 49.7775 747.206 48.833C748.206 43.7775 750.692 39.5969 754.664 36.2913C758.636 32.9858 763.261 31.333 768.539 31.333C773.817 31.333 778.442 32.9858 782.414 36.2913C786.386 39.5969 788.872 43.7775 789.872 48.833C792.372 49.7775 794.442 51.3886 796.081 53.6663C797.72 55.9441 798.539 58.4997 798.539 61.333C798.539 65.4997 797.067 68.8052 794.122 71.2497C791.178 73.6941 787.872 74.833 784.206 74.6663L768.706 104.666ZM751.872 67.9997C752.706 67.9997 753.525 67.8608 754.331 67.583C755.136 67.3052 755.872 66.833 756.539 66.1663L758.372 64.333L760.539 65.6663C761.706 66.4441 762.97 67.0275 764.331 67.4163C765.692 67.8052 767.095 67.9997 768.539 67.9997C769.984 67.9997 771.386 67.8052 772.747 67.4163C774.109 67.0275 775.372 66.4441 776.539 65.6663L778.706 64.333L780.539 66.1663C781.206 66.833 781.942 67.3052 782.747 67.583C783.553 67.8608 784.372 67.9997 785.206 67.9997C787.039 67.9997 788.609 67.3469 789.914 66.0413C791.22 64.7358 791.872 63.1663 791.872 61.333C791.872 59.6663 791.345 58.208 790.289 56.958C789.234 55.708 787.872 54.9441 786.206 54.6663L783.706 54.333L783.539 51.6663C783.261 47.833 781.678 44.5969 778.789 41.958C775.9 39.3191 772.484 37.9997 768.539 37.9997C764.595 37.9997 761.178 39.3191 758.289 41.958C755.4 44.5969 753.817 47.833 753.539 51.6663L753.372 54.333L750.872 54.833C749.206 55.1663 747.845 55.9163 746.789 57.083C745.734 58.2497 745.206 59.6663 745.206 61.333C745.206 63.1663 745.859 64.7358 747.164 66.0413C748.47 67.3469 750.039 67.9997 751.872 67.9997ZM768.706 90.1663L777.706 72.6663C776.372 73.333 774.928 73.833 773.372 74.1663C771.817 74.4997 770.206 74.6663 768.539 74.6663C767.039 74.6663 765.525 74.4997 763.997 74.1663C762.47 73.833 760.984 73.333 759.539 72.6663L768.706 90.1663Z" fill="#FCFAF9"/>
<g clip-path="url(#clip3_1290_6308)">
<path d="M869.34 61.9666C868.606 61.9666 867.873 61.6999 867.306 61.1666C866.14 60.0332 866.106 58.1999 867.24 57.0332L868.84 55.3666C871.573 52.5332 874.706 50.1332 878.173 48.2332C881.706 46.2999 885.706 45.2666 889.74 45.2332C893.306 45.1999 896.74 45.6332 900.14 46.5332L904.14 47.5999C905.706 47.9999 906.64 49.5999 906.206 51.1666C905.806 52.7332 904.206 53.6332 902.64 53.2332L898.64 52.1666C895.74 51.3999 892.74 51.0666 889.773 51.0332C886.706 51.0332 883.64 51.8666 880.973 53.3332C878.04 54.9332 875.373 56.9999 873.04 59.3999L871.44 61.0666C870.873 61.6666 870.106 61.9666 869.34 61.9666Z" fill="#FCFAF9"/>
<path d="M879.84 65.2004C879.106 65.2004 878.373 64.9337 877.806 64.4004C876.64 63.2671 876.606 61.4337 877.74 60.2671L878.54 59.4337C880.006 57.9004 881.706 56.6004 883.54 55.6004C885.506 54.5004 887.773 53.9337 890.006 53.9004C891.94 53.9004 893.773 54.1337 895.606 54.6004L897.606 55.1337C899.173 55.5337 900.106 57.1337 899.673 58.7004C899.273 60.2671 897.673 61.2004 896.106 60.7671L894.106 60.2337C892.773 59.8671 891.373 59.7004 890.073 59.7337C888.773 59.7337 887.506 60.0671 886.34 60.7004C885.006 61.4337 883.773 62.3671 882.74 63.4671L881.94 64.3004C881.373 64.9004 880.606 65.2004 879.84 65.2004Z" fill="#FCFAF9"/>
<path d="M933.405 39.5002C932.138 38.5002 930.305 38.7002 929.305 39.9668L908.205 66.6335H904.071L922.905 42.8668C923.905 41.6002 923.705 39.7668 922.438 38.7668C921.171 37.7668 919.338 37.9668 918.338 39.2335L896.638 66.6335H863.305V69.5668C863.305 76.7335 865.271 83.6668 868.971 89.6002C871.605 93.8335 875.138 97.5002 879.138 100.133L879.871 100.634H913.238L913.971 100.133C917.971 97.4668 921.471 93.8335 924.138 89.5668C927.838 83.6335 929.805 76.7002 929.805 69.5335V66.6002H915.671L933.905 43.5335C934.905 42.2668 934.705 40.4335 933.438 39.4335L933.405 39.5002ZM911.438 94.8002H881.638C880.105 93.7002 878.638 92.4002 877.305 90.9668H915.738C914.405 92.4002 912.971 93.7002 911.405 94.8002H911.438ZM919.905 85.1335H873.171C871.005 81.2668 869.671 76.9668 869.271 72.4668H923.838C923.438 76.9668 922.071 81.2668 919.938 85.1335H919.905Z" fill="#FCFAF9"/>
</g>
<g clip-path="url(#clip4_1290_6308)">
<path d="M1056.54 66.667C1039.64 66.667 1025.87 52.9003 1025.87 36.0003C1025.87 35.267 1025.27 34.667 1024.54 34.667C1023.81 34.667 1023.21 35.267 1023.21 36.0003C1023.21 52.9003 1009.44 66.667 992.54 66.667C991.807 66.667 991.207 67.267 991.207 68.0003C991.207 68.7337 991.807 69.3337 992.54 69.3337C1009.44 69.3337 1023.21 83.1003 1023.21 100C1023.21 100.734 1023.81 101.334 1024.54 101.334C1025.27 101.334 1025.87 100.734 1025.87 100C1025.87 83.1003 1039.64 69.3337 1056.54 69.3337C1057.27 69.3337 1057.87 68.7337 1057.87 68.0003C1057.87 67.267 1057.27 66.667 1056.54 66.667Z" fill="#FCFAF9"/>
</g>
<path d="M1155.68 59.2856H1131.11V62.7142H1155.11V74.1428H1131.11V77.5714H1155.97V92.7143H1112.54V44.7141H1155.68V59.2856Z" fill="#FCFAF9"/>
<path d="M1198.81 44.7141L1213.1 92.7143H1193.1L1191.5 85.8571H1178.7L1177.1 92.7143H1157.1L1171.39 44.7141H1198.81ZM1181.9 72.1428H1188.3L1185.1 58.4856L1181.9 72.1428Z" fill="#FCFAF9"/>
<path d="M1242.27 92.7143H1222.84V61.8571H1209.13V44.7141H1255.99V61.8571H1242.27V92.7143Z" fill="#FCFAF9"/>
<path d="M1291.39 66.4285H1308.54V92.7143H1284.08C1265.28 92.7143 1257.39 84.4285 1257.39 68.1428C1257.39 51.857 1265.28 43.5713 1284.08 43.5713C1292.82 43.5713 1299.34 44.3141 1306.25 45.5713L1305.11 61.1142C1298.99 60.4856 1292.82 59.857 1286.71 59.857C1280.99 59.857 1277.39 62.4285 1277.39 68.1428C1277.39 73.8571 1280.99 76.4285 1286.71 76.4285H1291.39V66.4285Z" fill="#FCFAF9"/>
<path d="M1338.29 43C1353.08 43 1365.08 54.1929 1365.08 68C1365.08 81.8072 1353.08 93 1338.29 93C1323.5 92.9998 1311.5 81.807 1311.5 68C1311.5 54.193 1323.5 43.0002 1338.29 43ZM1338.38 57.0977C1338.36 56.9814 1338.21 56.9814 1338.2 57.0977C1337.49 63.1111 1332.71 67.8876 1326.7 68.5957C1326.58 68.6065 1326.58 68.7645 1326.7 68.7754C1332.71 69.4835 1337.49 74.2609 1338.2 80.2744C1338.21 80.3907 1338.36 80.3907 1338.38 80.2744C1339.08 74.2609 1343.86 69.4835 1349.87 68.7754C1349.99 68.7648 1349.99 68.6063 1349.87 68.5957C1343.86 67.8875 1339.08 63.1111 1338.38 57.0977Z" fill="#FCFAF9"/>
<g clip-path="url(#clip5_1290_6308)">
<path d="M1485.08 66.667C1468.18 66.667 1454.41 52.9003 1454.41 36.0003C1454.41 35.267 1453.81 34.667 1453.08 34.667C1452.35 34.667 1451.75 35.267 1451.75 36.0003C1451.75 52.9003 1437.98 66.667 1421.08 66.667C1420.35 66.667 1419.75 67.267 1419.75 68.0003C1419.75 68.7337 1420.35 69.3337 1421.08 69.3337C1437.98 69.3337 1451.75 83.1003 1451.75 100C1451.75 100.734 1452.35 101.334 1453.08 101.334C1453.81 101.334 1454.41 100.734 1454.41 100C1454.41 83.1003 1468.18 69.3337 1485.08 69.3337C1485.81 69.3337 1486.41 68.7337 1486.41 68.0003C1486.41 67.267 1485.81 66.667 1485.08 66.667Z" fill="#FCFAF9"/>
</g>
<g clip-path="url(#clip6_1290_6308)">
<path d="M1612.11 50.3669L1606.85 50.4336L1612.58 44.5669C1613.71 43.4336 1613.68 41.5669 1612.55 40.4336C1611.41 39.3002 1609.55 39.3336 1608.41 40.4669L1602.71 46.3002L1602.65 41.0002C1602.65 39.4002 1601.28 38.0669 1599.71 38.1002C1598.11 38.1002 1596.81 39.4336 1596.81 41.0336V45.3336L1595.31 43.5002C1594.25 42.2336 1592.71 41.5002 1591.05 41.5002C1589.38 41.5669 1587.81 42.2002 1586.75 43.4669L1548.48 88.6336C1546.68 90.7336 1546.68 93.7002 1548.48 95.8336C1549.58 97.1669 1551.15 97.8669 1552.75 97.8669C1553.71 97.8669 1554.68 97.6002 1555.58 97.1002L1606.81 67.4669C1608.25 66.6336 1609.25 65.2336 1609.51 63.6002C1609.81 61.9669 1609.35 60.3002 1608.31 59.0336L1606.01 56.2669L1612.21 56.2002C1613.81 56.2002 1615.11 54.8669 1615.11 53.2669C1615.11 51.6669 1613.68 50.4002 1612.18 50.3669H1612.11ZM1594.95 67.5669L1589.35 60.9002C1588.31 59.6669 1586.48 59.5002 1585.25 60.5336C1584.01 61.5669 1583.85 63.4002 1584.88 64.6336L1589.81 70.5002L1586.55 72.3669L1583.25 68.3002C1582.25 67.0669 1580.38 66.8669 1579.15 67.8669C1577.88 68.9002 1577.71 70.7336 1578.75 71.9669L1581.48 75.3002L1553.85 91.2669L1591.01 47.5002L1603.68 62.5336L1594.95 67.6002V67.5669Z" fill="#FCFAF9"/>
</g>
<g clip-path="url(#clip7_1290_6308)">
<path d="M1681.88 61.9666C1681.15 61.9666 1680.41 61.6999 1679.85 61.1666C1678.68 60.0332 1678.65 58.1999 1679.78 57.0332L1681.38 55.3666C1684.11 52.5332 1687.25 50.1332 1690.71 48.2332C1694.25 46.2999 1698.25 45.2666 1702.28 45.2332C1705.85 45.1999 1709.28 45.6332 1712.68 46.5332L1716.68 47.5999C1718.25 47.9999 1719.18 49.5999 1718.75 51.1666C1718.35 52.7332 1716.75 53.6332 1715.18 53.2332L1711.18 52.1666C1708.28 51.3999 1705.28 51.0666 1702.31 51.0332C1699.25 51.0332 1696.18 51.8666 1693.51 53.3332C1690.58 54.9332 1687.91 56.9999 1685.58 59.3999L1683.98 61.0666C1683.41 61.6666 1682.65 61.9666 1681.88 61.9666Z" fill="#FCFAF9"/>
<path d="M1692.38 65.2004C1691.65 65.2004 1690.91 64.9337 1690.35 64.4004C1689.18 63.2671 1689.15 61.4337 1690.28 60.2671L1691.08 59.4337C1692.55 57.9004 1694.25 56.6004 1696.08 55.6004C1698.05 54.5004 1700.31 53.9337 1702.55 53.9004C1704.48 53.9004 1706.31 54.1337 1708.15 54.6004L1710.15 55.1337C1711.71 55.5337 1712.65 57.1337 1712.21 58.7004C1711.81 60.2671 1710.21 61.2004 1708.65 60.7671L1706.65 60.2337C1705.31 59.8671 1703.91 59.7004 1702.61 59.7337C1701.31 59.7337 1700.05 60.0671 1698.88 60.7004C1697.55 61.4337 1696.31 62.3671 1695.28 63.4671L1694.48 64.3004C1693.91 64.9004 1693.15 65.2004 1692.38 65.2004Z" fill="#FCFAF9"/>
<path d="M1745.94 39.5002C1744.68 38.5002 1742.84 38.7002 1741.84 39.9668L1720.74 66.6335H1716.61L1735.44 42.8668C1736.44 41.6002 1736.24 39.7668 1734.98 38.7668C1733.71 37.7668 1731.88 37.9668 1730.88 39.2335L1709.18 66.6335H1675.84V69.5668C1675.84 76.7335 1677.81 83.6668 1681.51 89.6002C1684.14 93.8335 1687.68 97.5002 1691.68 100.133L1692.41 100.634H1725.78L1726.51 100.133C1730.51 97.4668 1734.01 93.8335 1736.68 89.5668C1740.38 83.6335 1742.34 76.7002 1742.34 69.5335V66.6002H1728.21L1746.44 43.5335C1747.44 42.2668 1747.24 40.4335 1745.98 39.4335L1745.94 39.5002ZM1723.98 94.8002H1694.18C1692.64 93.7002 1691.18 92.4002 1689.84 90.9668H1728.28C1726.94 92.4002 1725.51 93.7002 1723.94 94.8002H1723.98ZM1732.44 85.1335H1685.71C1683.54 81.2668 1682.21 76.9668 1681.81 72.4668H1736.38C1735.98 76.9668 1734.61 81.2668 1732.48 85.1335H1732.44Z" fill="#FCFAF9"/>
</g>
<path d="M1821.18 60.1337C1823.78 59.7004 1826.54 58.3004 1828.98 56.2337C1831.41 54.1671 1833.24 51.6671 1834.11 49.2004C1835.28 45.8671 1834.28 43.9671 1833.58 43.1337C1832.88 42.3004 1831.18 41.0004 1827.68 41.6004C1825.08 42.0337 1822.31 43.4337 1819.88 45.5004C1817.44 47.5671 1815.61 50.0671 1814.74 52.5337C1813.58 55.8671 1814.58 57.7671 1815.28 58.6004C1815.84 59.2671 1817.11 60.2671 1819.48 60.2671C1819.98 60.2671 1820.54 60.2337 1821.18 60.1004V60.1337ZM1819.48 54.2004C1820.04 52.5671 1821.38 50.8004 1823.11 49.3337C1824.84 47.8671 1826.84 46.8337 1828.54 46.5337C1829.08 46.4337 1829.41 46.4337 1829.64 46.4671C1829.64 46.7004 1829.58 47.0337 1829.38 47.5337C1828.81 49.1671 1827.48 50.9337 1825.74 52.4004C1824.01 53.8671 1822.01 54.9004 1820.31 55.1671C1819.78 55.2671 1819.41 55.2671 1819.21 55.2337C1819.21 55.0004 1819.28 54.6671 1819.48 54.1671V54.2004Z" fill="#FCFAF9"/>
<path d="M1866.18 75.4665C1863.25 71.9999 1858.41 71.3332 1854.51 73.2665L1852.61 71.0332C1857.28 62.5665 1856.58 51.7665 1849.98 43.9665L1842.58 35.1999L1842.31 34.8665L1841.98 34.5999L1841.75 34.3999C1841.48 34.1665 1841.11 33.8999 1840.71 33.6665C1840.61 33.5999 1840.55 33.5665 1840.45 33.4999C1839.85 33.1665 1839.11 32.8665 1838.31 32.5999C1838.01 32.4999 1837.71 32.4332 1837.41 32.3665C1836.78 32.2332 1836.05 32.1332 1835.28 32.0999C1834.98 32.0999 1834.71 32.0332 1834.41 32.0332C1834.35 32.0332 1834.31 32.0332 1834.25 32.0332C1833.31 32.0332 1832.28 32.1332 1831.25 32.2999C1831.11 32.2999 1831.01 32.2999 1830.91 32.2999C1830.81 32.2999 1830.71 32.3665 1830.61 32.3665C1830.41 32.3999 1830.21 32.4332 1830.01 32.4665C1829.48 32.5665 1828.91 32.7999 1828.38 32.9332C1827.78 33.0999 1827.21 33.2332 1826.61 33.4332C1825.95 33.6665 1825.25 33.9999 1824.58 34.2999C1823.98 34.5665 1823.35 34.7999 1822.75 35.0999C1822.01 35.4665 1821.31 35.8999 1820.61 36.3332C1820.05 36.6665 1819.51 36.9665 1818.95 37.2999C1817.71 38.1332 1816.48 39.0332 1815.31 40.0332C1815.31 40.0332 1815.15 40.1999 1815.08 40.2665C1814.01 41.1999 1812.98 42.1665 1812.01 43.1665C1811.55 43.6332 1811.18 44.1332 1810.78 44.6332C1810.25 45.2665 1809.68 45.8665 1809.21 46.5332C1808.81 47.0999 1808.48 47.6332 1808.11 48.1999C1807.71 48.8332 1807.28 49.4332 1806.95 50.0665C1806.65 50.5999 1806.41 51.1665 1806.15 51.6999C1805.91 52.1999 1805.61 52.7332 1805.41 53.2332C1805.35 53.4332 1805.28 53.5999 1805.21 53.7999C1805.18 53.8999 1805.11 53.9999 1805.08 54.0999C1804.98 54.3999 1804.91 54.6999 1804.81 54.9665C1804.75 55.1999 1804.68 55.4332 1804.61 55.6665C1804.48 56.1332 1804.41 56.5665 1804.31 57.0332C1804.31 57.1999 1804.25 57.3999 1804.21 57.5665C1803.88 59.5999 1804.01 61.4332 1804.48 63.0665C1804.51 63.2332 1804.58 63.3665 1804.61 63.5332C1804.68 63.7332 1804.75 63.9332 1804.85 64.0999C1804.98 64.4332 1805.15 64.7332 1805.28 64.9999C1805.28 65.0332 1805.31 65.0999 1805.35 65.1332L1805.48 65.3665L1805.68 65.7332L1805.95 66.0665L1806.11 66.2665L1813.35 74.8332C1817.91 80.2332 1824.58 83.3332 1831.65 83.3332C1834.38 83.3332 1837.05 82.8332 1839.61 81.9332L1841.51 84.1665C1838.98 87.6999 1838.81 92.5665 1841.75 96.0332C1845.25 100.167 1851.41 100.333 1855.51 96.8665C1857.21 95.3999 1858.31 93.4999 1858.81 91.4999C1860.88 91.3332 1862.95 90.5665 1864.65 89.1332C1868.75 85.6665 1869.61 79.5332 1866.11 75.3999L1866.18 75.4665ZM1809.98 63.0999C1809.75 62.8332 1809.58 62.4665 1809.45 62.0999C1809.38 61.9332 1809.31 61.7999 1809.25 61.5999C1809.18 61.3665 1809.15 61.0665 1809.11 60.7999C1809.08 60.5332 1809.01 60.2665 1809.01 59.9332C1809.01 59.6999 1809.05 59.4332 1809.08 59.1999C1809.08 58.7999 1809.15 58.3665 1809.25 57.8999C1809.31 57.6332 1809.41 57.3332 1809.48 57.0665C1809.61 56.5665 1809.75 56.0665 1809.95 55.5332C1810.18 54.8999 1810.48 54.2665 1810.81 53.6332C1810.98 53.2999 1811.11 52.9665 1811.31 52.6332C1811.78 51.8332 1812.31 51.0332 1812.85 50.2332C1812.98 50.0665 1813.08 49.8665 1813.21 49.6999C1814.68 47.6999 1816.48 45.7999 1818.51 44.0665C1818.55 44.0665 1818.58 43.9999 1818.61 43.9665C1818.85 43.7665 1819.05 43.6332 1819.28 43.4665C1821.15 41.9665 1823.15 40.6332 1825.15 39.5999C1825.35 39.4999 1825.51 39.4332 1825.71 39.3665C1826.61 38.9332 1827.51 38.5332 1828.38 38.2332C1828.75 38.0999 1829.08 38.0332 1829.41 37.9332C1830.15 37.6999 1830.88 37.4999 1831.61 37.3665C1831.81 37.3332 1831.98 37.2999 1832.15 37.2665C1832.78 37.1665 1833.35 37.0999 1833.91 37.0999C1834.01 37.0999 1834.11 37.0999 1834.21 37.0999C1834.85 37.0999 1835.38 37.1332 1835.91 37.2332C1836.08 37.2332 1836.25 37.2999 1836.41 37.3332C1836.81 37.4332 1837.21 37.5332 1837.55 37.6999C1837.61 37.7332 1837.71 37.7665 1837.78 37.7999C1838.21 38.0332 1838.61 38.3332 1838.88 38.6665C1840.08 40.0999 1840.15 42.7332 1839.05 45.8999C1837.61 49.9665 1834.41 54.2999 1830.25 57.8332C1826.08 61.3332 1821.28 63.7665 1817.01 64.4999C1813.71 65.0665 1811.11 64.5665 1809.91 63.1332L1809.98 63.0999ZM1817.21 71.6665L1815.48 69.6332C1816.28 69.5999 1817.08 69.5665 1817.95 69.3999C1823.11 68.4999 1828.65 65.7332 1833.55 61.5999C1838.45 57.4665 1842.08 52.4665 1843.81 47.5332C1844.08 46.7332 1844.31 45.9665 1844.48 45.1999L1846.18 47.1999C1852.95 55.1999 1851.95 67.1665 1843.95 73.8999C1840.38 76.8999 1836.05 78.3665 1831.71 78.3665C1826.31 78.3665 1820.98 76.0665 1817.21 71.6332V71.6665ZM1845.58 92.8665C1844.05 91.0665 1844.25 88.0665 1846.45 86.1999L1848.35 84.5999L1846.75 82.6999L1844.58 80.1332C1845.55 79.4999 1846.48 78.8332 1847.41 78.0665C1848.31 77.2999 1849.15 76.4999 1849.91 75.6332L1852.08 78.1999L1853.61 80.0332L1855.51 78.5665L1856.05 78.1665C1858.21 76.6665 1860.91 77.0665 1862.35 78.7332C1863.88 80.5332 1863.68 83.5332 1861.48 85.3999C1860.18 86.4999 1858.58 86.8332 1857.18 86.5665L1854.11 85.9665L1854.21 89.0999C1854.25 90.5332 1853.65 92.0665 1852.35 93.1332C1850.15 94.9999 1847.15 94.6999 1845.61 92.8999L1845.58 92.8665Z" fill="#FCFAF9"/>
<g clip-path="url(#clip8_1290_6308)">
<path d="M1997.08 66.667C1980.18 66.667 1966.41 52.9003 1966.41 36.0003C1966.41 35.267 1965.81 34.667 1965.08 34.667C1964.35 34.667 1963.75 35.267 1963.75 36.0003C1963.75 52.9003 1949.98 66.667 1933.08 66.667C1932.35 66.667 1931.75 67.267 1931.75 68.0003C1931.75 68.7337 1932.35 69.3337 1933.08 69.3337C1949.98 69.3337 1963.75 83.1003 1963.75 100C1963.75 100.734 1964.35 101.334 1965.08 101.334C1965.81 101.334 1966.41 100.734 1966.41 100C1966.41 83.1003 1980.18 69.3337 1997.08 69.3337C1997.81 69.3337 1998.41 68.7337 1998.41 68.0003C1998.41 67.267 1997.81 66.667 1997.08 66.667Z" fill="#FCFAF9"/>
</g>
<path d="M2096.22 59.2856H2071.65V62.7142H2095.65V74.1428H2071.65V77.5714H2096.51V92.7143H2053.08V44.7141H2096.22V59.2856Z" fill="#FCFAF9"/>
<path d="M2139.35 44.7141L2153.64 92.7143H2133.64L2132.04 85.8571H2119.24L2117.64 92.7143H2097.64L2111.92 44.7141H2139.35ZM2122.44 72.1428H2128.84L2125.64 58.4856L2122.44 72.1428Z" fill="#FCFAF9"/>
<path d="M2182.81 92.7143H2163.38V61.8571H2149.67V44.7141H2196.53V61.8571H2182.81V92.7143Z" fill="#FCFAF9"/>
<path d="M2231.93 66.4285H2249.08V92.7143H2224.62C2205.82 92.7143 2197.93 84.4285 2197.93 68.1428C2197.93 51.857 2205.82 43.5713 2224.62 43.5713C2233.36 43.5713 2239.88 44.3141 2246.79 45.5713L2245.65 61.1142C2239.53 60.4856 2233.36 59.857 2227.25 59.857C2221.53 59.857 2217.93 62.4285 2217.93 68.1428C2217.93 73.8571 2221.53 76.4285 2227.25 76.4285H2231.93V66.4285Z" fill="#FCFAF9"/>
<path d="M2278.83 43C2293.62 43 2305.61 54.1929 2305.61 68C2305.61 81.8072 2293.62 93 2278.83 93C2264.03 92.9998 2252.04 81.807 2252.04 68C2252.04 54.193 2264.03 43.0002 2278.83 43ZM2278.91 57.0977C2278.9 56.9814 2278.74 56.9814 2278.73 57.0977C2278.03 63.1111 2273.25 67.8876 2267.24 68.5957C2267.12 68.6065 2267.12 68.7645 2267.24 68.7754C2273.25 69.4835 2278.03 74.2609 2278.73 80.2744C2278.74 80.3907 2278.9 80.3907 2278.91 80.2744C2279.62 74.2609 2284.4 69.4835 2290.41 68.7754C2290.53 68.7648 2290.53 68.6063 2290.41 68.5957C2284.4 67.8875 2279.62 63.1111 2278.91 57.0977Z" fill="#FCFAF9"/>
<g clip-path="url(#clip9_1290_6308)">
<path d="M2425.62 66.667C2408.72 66.667 2394.95 52.9003 2394.95 36.0003C2394.95 35.267 2394.35 34.667 2393.62 34.667C2392.89 34.667 2392.29 35.267 2392.29 36.0003C2392.29 52.9003 2378.52 66.667 2361.62 66.667C2360.89 66.667 2360.29 67.267 2360.29 68.0003C2360.29 68.7337 2360.89 69.3337 2361.62 69.3337C2378.52 69.3337 2392.29 83.1003 2392.29 100C2392.29 100.734 2392.89 101.334 2393.62 101.334C2394.35 101.334 2394.95 100.734 2394.95 100C2394.95 83.1003 2408.72 69.3337 2425.62 69.3337C2426.35 69.3337 2426.95 68.7337 2426.95 68.0003C2426.95 67.267 2426.35 66.667 2425.62 66.667Z" fill="#FCFAF9"/>
</g>
<defs>
<clipPath id="clip0_1290_6308">
<rect width="80" height="80" fill="white" transform="translate(44 28)"/>
</clipPath>
<clipPath id="clip1_1290_6308">
<rect width="80" height="80" fill="white" transform="translate(472.539 28)"/>
</clipPath>
<clipPath id="clip2_1290_6308">
<rect width="80" height="80" fill="white" transform="translate(600.539 28)"/>
</clipPath>
<clipPath id="clip3_1290_6308">
<rect width="80" height="80" fill="white" transform="translate(856.539 28)"/>
</clipPath>
<clipPath id="clip4_1290_6308">
<rect width="80" height="80" fill="white" transform="translate(984.539 28)"/>
</clipPath>
<clipPath id="clip5_1290_6308">
<rect width="80" height="80" fill="white" transform="translate(1413.08 28)"/>
</clipPath>
<clipPath id="clip6_1290_6308">
<rect width="80" height="80" fill="white" transform="translate(1541.08 28)"/>
</clipPath>
<clipPath id="clip7_1290_6308">
<rect width="80" height="80" fill="white" transform="translate(1669.08 28)"/>
</clipPath>
<clipPath id="clip8_1290_6308">
<rect width="80" height="80" fill="white" transform="translate(1925.08 28)"/>
</clipPath>
<clipPath id="clip9_1290_6308">
<rect width="80" height="80" fill="white" transform="translate(2353.62 28)"/>
</clipPath>
</defs>
</svg>
