<svg width="2218" height="136" viewBox="0 0 2218 136" fill="none" xmlns="http://www.w3.org/2000/svg">
<g clip-path="url(#clip0_1290_6238)">
<path d="M117.103 66.667C100.203 66.667 86.4362 52.9003 86.4362 36.0003C86.4362 35.267 85.8362 34.667 85.1029 34.667C84.3695 34.667 83.7695 35.267 83.7695 36.0003C83.7695 52.9003 70.0029 66.667 53.1029 66.667C52.3695 66.667 51.7695 67.267 51.7695 68.0003C51.7695 68.7337 52.3695 69.3337 53.1029 69.3337C70.0029 69.3337 83.7695 83.1003 83.7695 100C83.7695 100.734 84.3695 101.334 85.1029 101.334C85.8362 101.334 86.4362 100.734 86.4362 100C86.4362 83.1003 100.203 69.3337 117.103 69.3337C117.836 69.3337 118.436 68.7337 118.436 68.0003C118.436 67.267 117.836 66.667 117.103 66.667Z" fill="#FCFAF9"/>
</g>
<g clip-path="url(#clip1_1290_6238)">
<path d="M296.637 67.0391L296.637 88.0698L338.104 88.0698L338.104 107.972L258.355 107.972L258.355 88.0698L275.418 88.0698L275.418 67.0391L296.637 67.0391Z" fill="#FCFAF9"/>
<path d="M303.425 31.5524C327.276 31.5524 334.596 37.3537 334.596 55.9594C334.596 63.7466 333.719 73.269 331.745 84.6101L309.137 82.875C310.453 72.6627 310.965 67.9068 310.965 63.224C310.965 56.6493 309.21 54.9141 301.452 54.9141C293.693 54.9141 283.971 55.7817 263.556 57.8513L261.875 35.8694C277.894 33.0158 291.646 31.542 303.425 31.542L303.425 31.5524Z" fill="#FCFAF9"/>
<path d="M253.393 29.3154L231.965 29.3154L231.965 82.4254L253.393 82.4254L253.393 29.3154Z" fill="#FCFAF9"/>
<path d="M201.725 28.0293C217.532 28.0295 230.347 39.5043 230.347 53.6592C230.347 67.814 217.532 79.2888 201.725 79.2891C185.917 79.2891 173.102 67.8142 173.102 53.6592C173.102 39.5042 185.917 28.0293 201.725 28.0293ZM201.817 42.1924C201.807 42.0779 201.65 42.0779 201.64 42.1924C200.94 48.1399 196.22 52.8651 190.278 53.5654C190.164 53.5762 190.164 53.7324 190.278 53.7432C196.22 54.4435 200.94 59.1678 201.64 65.1152C201.65 65.2302 201.807 65.2302 201.817 65.1152C202.517 59.1678 207.237 54.4435 213.179 53.7432C213.294 53.7327 213.294 53.5759 213.179 53.5654C207.237 52.8651 202.517 48.1399 201.817 42.1924Z" fill="#FCFAF9"/>
<path d="M207.928 107.24C210.33 101.115 213.306 96.4737 214.58 96.8814C215.802 97.2681 215.008 102.17 212.826 107.982L249.969 107.982C249.969 93.5679 233.366 81.8818 212.878 81.8818C192.39 81.8818 175.797 93.5574 175.797 107.972L207.646 107.972C207.74 107.731 207.824 107.48 207.928 107.23L207.928 107.24Z" fill="#FCFAF9"/>
</g>
<g clip-path="url(#clip2_1290_6238)">
<path d="M458.103 66.667C441.203 66.667 427.436 52.9003 427.436 36.0003C427.436 35.267 426.836 34.667 426.103 34.667C425.37 34.667 424.77 35.267 424.77 36.0003C424.77 52.9003 411.003 66.667 394.103 66.667C393.37 66.667 392.77 67.267 392.77 68.0003C392.77 68.7337 393.37 69.3337 394.103 69.3337C411.003 69.3337 424.77 83.1003 424.77 100C424.77 100.734 425.37 101.334 426.103 101.334C426.836 101.334 427.436 100.734 427.436 100C427.436 83.1003 441.203 69.3337 458.103 69.3337C458.836 69.3337 459.436 68.7337 459.436 68.0003C459.436 67.267 458.836 66.667 458.103 66.667Z" fill="#FCFAF9"/>
</g>
<g clip-path="url(#clip3_1290_6238)">
<path d="M580.233 51.3334H573.767L579.367 42.6668C580.233 41.3001 579.867 39.5001 578.5 38.6334C577.133 37.7668 575.333 38.1334 574.467 39.5001L567.767 49.8668L541.2 39.3334C540.8 39.1668 540.367 39.1334 539.967 39.1668C539.967 39.1668 539.9 39.1668 539.867 39.1668C538.267 39.1668 536.933 40.4668 536.933 42.1001V51.3668H528V66.2334H534.367L539.567 97.8334H568.733L573.9 66.2334H580.267V51.3668L580.233 51.3334ZM542.767 46.2668L555.567 51.3334H542.767V46.2668ZM533.833 57.1668H574.4V60.3668H533.833V57.1668ZM544.5 91.9668L542.867 82.0001H547.067C548.2 84.7668 550.933 86.7334 554.133 86.7334C557.333 86.7334 560.033 84.7668 561.2 82.0001H565.4L563.767 91.9668H544.533H544.5ZM552.3 79.0668C552.3 78.0668 553.1 77.2668 554.1 77.2668C555.1 77.2668 555.9 78.0668 555.9 79.0668C555.9 80.0668 555.1 80.8668 554.1 80.8668C553.1 80.8668 552.3 80.0668 552.3 79.0668ZM566.333 76.1334H561.167C560.033 73.3668 557.3 71.4001 554.1 71.4001C550.9 71.4001 548.2 73.3668 547.033 76.1334H541.867L540.233 66.1668H567.933L566.3 76.1334H566.333Z" fill="#FCFAF9"/>
</g>
<path d="M682.268 104.666L666.602 74.6663C662.657 74.833 659.254 73.6941 656.393 71.2497C653.532 68.8052 652.102 65.4997 652.102 61.333C652.102 58.4997 652.921 55.9441 654.56 53.6663C656.199 51.3886 658.268 49.7775 660.768 48.833C661.768 43.7775 664.254 39.5969 668.227 36.2913C672.199 32.9858 676.824 31.333 682.102 31.333C687.379 31.333 692.004 32.9858 695.977 36.2913C699.949 39.5969 702.435 43.7775 703.435 48.833C705.935 49.7775 708.004 51.3886 709.643 53.6663C711.282 55.9441 712.102 58.4997 712.102 61.333C712.102 65.4997 710.629 68.8052 707.685 71.2497C704.74 73.6941 701.435 74.833 697.768 74.6663L682.268 104.666ZM665.435 67.9997C666.268 67.9997 667.088 67.8608 667.893 67.583C668.699 67.3052 669.435 66.833 670.102 66.1663L671.935 64.333L674.102 65.6663C675.268 66.4441 676.532 67.0275 677.893 67.4163C679.254 67.8052 680.657 67.9997 682.102 67.9997C683.546 67.9997 684.949 67.8052 686.31 67.4163C687.671 67.0275 688.935 66.4441 690.102 65.6663L692.268 64.333L694.102 66.1663C694.768 66.833 695.504 67.3052 696.31 67.583C697.115 67.8608 697.935 67.9997 698.768 67.9997C700.602 67.9997 702.171 67.3469 703.477 66.0413C704.782 64.7358 705.435 63.1663 705.435 61.333C705.435 59.6663 704.907 58.208 703.852 56.958C702.796 55.708 701.435 54.9441 699.768 54.6663L697.268 54.333L697.102 51.6663C696.824 47.833 695.24 44.5969 692.352 41.958C689.463 39.3191 686.046 37.9997 682.102 37.9997C678.157 37.9997 674.74 39.3191 671.852 41.958C668.963 44.5969 667.379 47.833 667.102 51.6663L666.935 54.333L664.435 54.833C662.768 55.1663 661.407 55.9163 660.352 57.083C659.296 58.2497 658.768 59.6663 658.768 61.333C658.768 63.1663 659.421 64.7358 660.727 66.0413C662.032 67.3469 663.602 67.9997 665.435 67.9997ZM682.268 90.1663L691.268 72.6663C689.935 73.333 688.49 73.833 686.935 74.1663C685.379 74.4997 683.768 74.6663 682.102 74.6663C680.602 74.6663 679.088 74.4997 677.56 74.1663C676.032 73.833 674.546 73.333 673.102 72.6663L682.268 90.1663Z" fill="#FCFAF9"/>
<g clip-path="url(#clip4_1290_6238)">
<path d="M782.902 61.9666C782.169 61.9666 781.436 61.6999 780.869 61.1666C779.702 60.0332 779.669 58.1999 780.802 57.0332L782.402 55.3666C785.136 52.5332 788.269 50.1332 791.736 48.2332C795.269 46.2999 799.269 45.2666 803.302 45.2332C806.869 45.1999 810.302 45.6332 813.702 46.5332L817.702 47.5999C819.269 47.9999 820.202 49.5999 819.769 51.1666C819.369 52.7332 817.769 53.6332 816.202 53.2332L812.202 52.1666C809.302 51.3999 806.302 51.0666 803.336 51.0332C800.269 51.0332 797.202 51.8666 794.536 53.3332C791.602 54.9332 788.936 56.9999 786.602 59.3999L785.002 61.0666C784.436 61.6666 783.669 61.9666 782.902 61.9666Z" fill="#FCFAF9"/>
<path d="M793.402 65.2004C792.669 65.2004 791.936 64.9337 791.369 64.4004C790.202 63.2671 790.169 61.4337 791.302 60.2671L792.102 59.4337C793.569 57.9004 795.269 56.6004 797.102 55.6004C799.069 54.5004 801.336 53.9337 803.569 53.9004C805.502 53.9004 807.336 54.1337 809.169 54.6004L811.169 55.1337C812.736 55.5337 813.669 57.1337 813.236 58.7004C812.836 60.2671 811.236 61.2004 809.669 60.7671L807.669 60.2337C806.336 59.8671 804.936 59.7004 803.636 59.7337C802.336 59.7337 801.069 60.0671 799.902 60.7004C798.569 61.4337 797.336 62.3671 796.302 63.4671L795.502 64.3004C794.936 64.9004 794.169 65.2004 793.402 65.2004Z" fill="#FCFAF9"/>
<path d="M846.967 39.5002C845.701 38.5002 843.867 38.7002 842.867 39.9668L821.767 66.6335H817.634L836.467 42.8668C837.467 41.6002 837.267 39.7668 836.001 38.7668C834.734 37.7668 832.901 37.9668 831.901 39.2335L810.201 66.6335H776.867V69.5668C776.867 76.7335 778.834 83.6668 782.534 89.6002C785.167 93.8335 788.701 97.5002 792.701 100.133L793.434 100.634H826.801L827.534 100.133C831.534 97.4668 835.034 93.8335 837.701 89.5668C841.401 83.6335 843.367 76.7002 843.367 69.5335V66.6002H829.234L847.467 43.5335C848.467 42.2668 848.267 40.4335 847.001 39.4335L846.967 39.5002ZM825.001 94.8002H795.201C793.667 93.7002 792.201 92.4002 790.867 90.9668H829.301C827.967 92.4002 826.534 93.7002 824.967 94.8002H825.001ZM833.467 85.1335H786.734C784.567 81.2668 783.234 76.9668 782.834 72.4668H837.401C837.001 76.9668 835.634 81.2668 833.501 85.1335H833.467Z" fill="#FCFAF9"/>
</g>
<g clip-path="url(#clip5_1290_6238)">
<path d="M970.103 66.667C953.203 66.667 939.436 52.9003 939.436 36.0003C939.436 35.267 938.836 34.667 938.103 34.667C937.37 34.667 936.77 35.267 936.77 36.0003C936.77 52.9003 923.003 66.667 906.103 66.667C905.37 66.667 904.77 67.267 904.77 68.0003C904.77 68.7337 905.37 69.3337 906.103 69.3337C923.003 69.3337 936.77 83.1003 936.77 100C936.77 100.734 937.37 101.334 938.103 101.334C938.836 101.334 939.436 100.734 939.436 100C939.436 83.1003 953.203 69.3337 970.103 69.3337C970.836 69.3337 971.436 68.7337 971.436 68.0003C971.436 67.267 970.836 66.667 970.103 66.667Z" fill="#FCFAF9"/>
</g>
<g clip-path="url(#clip6_1290_6238)">
<path d="M1149.64 67.0391L1149.64 88.0698L1191.1 88.0698L1191.1 107.972L1111.36 107.972L1111.36 88.0698L1128.42 88.0698L1128.42 67.0391L1149.64 67.0391Z" fill="#FCFAF9"/>
<path d="M1156.43 31.5524C1180.28 31.5524 1187.6 37.3537 1187.6 55.9594C1187.6 63.7466 1186.72 73.269 1184.74 84.6101L1162.14 82.875C1163.45 72.6627 1163.96 67.9068 1163.96 63.224C1163.96 56.6493 1162.21 54.9141 1154.45 54.9141C1146.69 54.9141 1136.97 55.7817 1116.56 57.8513L1114.87 35.8694C1130.89 33.0158 1144.65 31.542 1156.43 31.542L1156.43 31.5524Z" fill="#FCFAF9"/>
<path d="M1106.39 29.3154L1084.96 29.3154L1084.96 82.4254L1106.39 82.4254L1106.39 29.3154Z" fill="#FCFAF9"/>
<path d="M1054.72 28.0293C1070.53 28.0295 1083.35 39.5043 1083.35 53.6592C1083.35 67.814 1070.53 79.2888 1054.72 79.2891C1038.92 79.2891 1026.1 67.8142 1026.1 53.6592C1026.1 39.5042 1038.92 28.0293 1054.72 28.0293ZM1054.82 42.1924C1054.81 42.0779 1054.65 42.0779 1054.64 42.1924C1053.94 48.1399 1049.22 52.8651 1043.28 53.5654C1043.16 53.5762 1043.16 53.7324 1043.28 53.7432C1049.22 54.4435 1053.94 59.1678 1054.64 65.1152C1054.65 65.2302 1054.81 65.2302 1054.82 65.1152C1055.52 59.1678 1060.24 54.4435 1066.18 53.7432C1066.29 53.7327 1066.29 53.5759 1066.18 53.5654C1060.24 52.8651 1055.52 48.1399 1054.82 42.1924Z" fill="#FCFAF9"/>
<path d="M1060.93 107.24C1063.33 101.115 1066.31 96.4737 1067.58 96.8814C1068.8 97.2681 1068.01 102.17 1065.83 107.982L1102.97 107.982C1102.97 93.5679 1086.37 81.8818 1065.88 81.8818C1045.39 81.8818 1028.8 93.5574 1028.8 107.972L1060.65 107.972C1060.74 107.731 1060.82 107.48 1060.93 107.23L1060.93 107.24Z" fill="#FCFAF9"/>
</g>
<g clip-path="url(#clip7_1290_6238)">
<path d="M1311.1 66.667C1294.2 66.667 1280.44 52.9003 1280.44 36.0003C1280.44 35.267 1279.84 34.667 1279.1 34.667C1278.37 34.667 1277.77 35.267 1277.77 36.0003C1277.77 52.9003 1264 66.667 1247.1 66.667C1246.37 66.667 1245.77 67.267 1245.77 68.0003C1245.77 68.7337 1246.37 69.3337 1247.1 69.3337C1264 69.3337 1277.77 83.1003 1277.77 100C1277.77 100.734 1278.37 101.334 1279.1 101.334C1279.84 101.334 1280.44 100.734 1280.44 100C1280.44 83.1003 1294.2 69.3337 1311.1 69.3337C1311.84 69.3337 1312.44 68.7337 1312.44 68.0003C1312.44 67.267 1311.84 66.667 1311.1 66.667Z" fill="#FCFAF9"/>
</g>
<g clip-path="url(#clip8_1290_6238)">
<path d="M1438.14 50.3669L1432.87 50.4336L1438.6 44.5669C1439.74 43.4336 1439.7 41.5669 1438.57 40.4336C1437.44 39.3002 1435.57 39.3336 1434.44 40.4669L1428.74 46.3002L1428.67 41.0002C1428.67 39.4002 1427.3 38.0669 1425.74 38.1002C1424.14 38.1002 1422.84 39.4336 1422.84 41.0336V45.3336L1421.34 43.5002C1420.27 42.2336 1418.74 41.5002 1417.07 41.5002C1415.4 41.5669 1413.84 42.2002 1412.77 43.4669L1374.5 88.6336C1372.7 90.7336 1372.7 93.7002 1374.5 95.8336C1375.6 97.1669 1377.17 97.8669 1378.77 97.8669C1379.74 97.8669 1380.7 97.6002 1381.6 97.1002L1432.84 67.4669C1434.27 66.6336 1435.27 65.2336 1435.54 63.6002C1435.84 61.9669 1435.37 60.3002 1434.34 59.0336L1432.04 56.2669L1438.24 56.2002C1439.84 56.2002 1441.14 54.8669 1441.14 53.2669C1441.14 51.6669 1439.7 50.4002 1438.2 50.3669H1438.14ZM1420.97 67.5669L1415.37 60.9002C1414.34 59.6669 1412.5 59.5002 1411.27 60.5336C1410.04 61.5669 1409.87 63.4002 1410.9 64.6336L1415.84 70.5002L1412.57 72.3669L1409.27 68.3002C1408.27 67.0669 1406.4 66.8669 1405.17 67.8669C1403.9 68.9002 1403.74 70.7336 1404.77 71.9669L1407.5 75.3002L1379.87 91.2669L1417.04 47.5002L1429.7 62.5336L1420.97 67.6002V67.5669Z" fill="#FCFAF9"/>
</g>
<g clip-path="url(#clip9_1290_6238)">
<path d="M1507.9 61.9666C1507.17 61.9666 1506.44 61.6999 1505.87 61.1666C1504.7 60.0332 1504.67 58.1999 1505.8 57.0332L1507.4 55.3666C1510.14 52.5332 1513.27 50.1332 1516.74 48.2332C1520.27 46.2999 1524.27 45.2666 1528.3 45.2332C1531.87 45.1999 1535.3 45.6332 1538.7 46.5332L1542.7 47.5999C1544.27 47.9999 1545.2 49.5999 1544.77 51.1666C1544.37 52.7332 1542.77 53.6332 1541.2 53.2332L1537.2 52.1666C1534.3 51.3999 1531.3 51.0666 1528.34 51.0332C1525.27 51.0332 1522.2 51.8666 1519.54 53.3332C1516.6 54.9332 1513.94 56.9999 1511.6 59.3999L1510 61.0666C1509.44 61.6666 1508.67 61.9666 1507.9 61.9666Z" fill="#FCFAF9"/>
<path d="M1518.4 65.2004C1517.67 65.2004 1516.94 64.9337 1516.37 64.4004C1515.2 63.2671 1515.17 61.4337 1516.3 60.2671L1517.1 59.4337C1518.57 57.9004 1520.27 56.6004 1522.1 55.6004C1524.07 54.5004 1526.34 53.9337 1528.57 53.9004C1530.5 53.9004 1532.34 54.1337 1534.17 54.6004L1536.17 55.1337C1537.74 55.5337 1538.67 57.1337 1538.24 58.7004C1537.84 60.2671 1536.24 61.2004 1534.67 60.7671L1532.67 60.2337C1531.34 59.8671 1529.94 59.7004 1528.64 59.7337C1527.34 59.7337 1526.07 60.0671 1524.9 60.7004C1523.57 61.4337 1522.34 62.3671 1521.3 63.4671L1520.5 64.3004C1519.94 64.9004 1519.17 65.2004 1518.4 65.2004Z" fill="#FCFAF9"/>
<path d="M1571.97 39.5002C1570.7 38.5002 1568.87 38.7002 1567.87 39.9668L1546.77 66.6335H1542.63L1561.47 42.8668C1562.47 41.6002 1562.27 39.7668 1561 38.7668C1559.73 37.7668 1557.9 37.9668 1556.9 39.2335L1535.2 66.6335H1501.87V69.5668C1501.87 76.7335 1503.83 83.6668 1507.53 89.6002C1510.17 93.8335 1513.7 97.5002 1517.7 100.133L1518.43 100.634H1551.8L1552.53 100.133C1556.53 97.4668 1560.03 93.8335 1562.7 89.5668C1566.4 83.6335 1568.37 76.7002 1568.37 69.5335V66.6002H1554.23L1572.47 43.5335C1573.47 42.2668 1573.27 40.4335 1572 39.4335L1571.97 39.5002ZM1550 94.8002H1520.2C1518.67 93.7002 1517.2 92.4002 1515.87 90.9668H1554.3C1552.97 92.4002 1551.53 93.7002 1549.97 94.8002H1550ZM1558.47 85.1335H1511.73C1509.57 81.2668 1508.23 76.9668 1507.83 72.4668H1562.4C1562 76.9668 1560.63 81.2668 1558.5 85.1335H1558.47Z" fill="#FCFAF9"/>
</g>
<path d="M1647.2 60.1337C1649.8 59.7004 1652.57 58.3004 1655 56.2337C1657.43 54.1671 1659.27 51.6671 1660.13 49.2004C1661.3 45.8671 1660.3 43.9671 1659.6 43.1337C1658.9 42.3004 1657.2 41.0004 1653.7 41.6004C1651.1 42.0337 1648.33 43.4337 1645.9 45.5004C1643.47 47.5671 1641.63 50.0671 1640.77 52.5337C1639.6 55.8671 1640.6 57.7671 1641.3 58.6004C1641.87 59.2671 1643.13 60.2671 1645.5 60.2671C1646 60.2671 1646.57 60.2337 1647.2 60.1004V60.1337ZM1645.5 54.2004C1646.07 52.5671 1647.4 50.8004 1649.13 49.3337C1650.87 47.8671 1652.87 46.8337 1654.57 46.5337C1655.1 46.4337 1655.43 46.4337 1655.67 46.4671C1655.67 46.7004 1655.6 47.0337 1655.4 47.5337C1654.83 49.1671 1653.5 50.9337 1651.77 52.4004C1650.03 53.8671 1648.03 54.9004 1646.33 55.1671C1645.8 55.2671 1645.43 55.2671 1645.23 55.2337C1645.23 55.0004 1645.3 54.6671 1645.5 54.1671V54.2004Z" fill="#FCFAF9"/>
<path d="M1692.2 75.4665C1689.27 71.9999 1684.44 71.3332 1680.54 73.2665L1678.64 71.0332C1683.3 62.5665 1682.6 51.7665 1676 43.9665L1668.6 35.1999L1668.34 34.8665L1668 34.5999L1667.77 34.3999C1667.5 34.1665 1667.14 33.8999 1666.74 33.6665C1666.64 33.5999 1666.57 33.5665 1666.47 33.4999C1665.87 33.1665 1665.14 32.8665 1664.34 32.5999C1664.04 32.4999 1663.74 32.4332 1663.44 32.3665C1662.8 32.2332 1662.07 32.1332 1661.3 32.0999C1661 32.0999 1660.74 32.0332 1660.44 32.0332C1660.37 32.0332 1660.34 32.0332 1660.27 32.0332C1659.34 32.0332 1658.3 32.1332 1657.27 32.2999C1657.14 32.2999 1657.04 32.2999 1656.94 32.2999C1656.84 32.2999 1656.74 32.3665 1656.64 32.3665C1656.44 32.3999 1656.24 32.4332 1656.04 32.4665C1655.5 32.5665 1654.94 32.7999 1654.4 32.9332C1653.8 33.0999 1653.24 33.2332 1652.64 33.4332C1651.97 33.6665 1651.27 33.9999 1650.6 34.2999C1650 34.5665 1649.37 34.7999 1648.77 35.0999C1648.04 35.4665 1647.34 35.8999 1646.64 36.3332C1646.07 36.6665 1645.54 36.9665 1644.97 37.2999C1643.74 38.1332 1642.5 39.0332 1641.34 40.0332C1641.34 40.0332 1641.17 40.1999 1641.1 40.2665C1640.04 41.1999 1639 42.1665 1638.04 43.1665C1637.57 43.6332 1637.2 44.1332 1636.8 44.6332C1636.27 45.2665 1635.7 45.8665 1635.24 46.5332C1634.84 47.0999 1634.5 47.6332 1634.14 48.1999C1633.74 48.8332 1633.3 49.4332 1632.97 50.0665C1632.67 50.5999 1632.44 51.1665 1632.17 51.6999C1631.94 52.1999 1631.64 52.7332 1631.44 53.2332C1631.37 53.4332 1631.3 53.5999 1631.24 53.7999C1631.2 53.8999 1631.14 53.9999 1631.1 54.0999C1631 54.3999 1630.94 54.6999 1630.84 54.9665C1630.77 55.1999 1630.7 55.4332 1630.64 55.6665C1630.5 56.1332 1630.44 56.5665 1630.34 57.0332C1630.34 57.1999 1630.27 57.3999 1630.24 57.5665C1629.9 59.5999 1630.04 61.4332 1630.5 63.0665C1630.54 63.2332 1630.6 63.3665 1630.64 63.5332C1630.7 63.7332 1630.77 63.9332 1630.87 64.0999C1631 64.4332 1631.17 64.7332 1631.3 64.9999C1631.3 65.0332 1631.34 65.0999 1631.37 65.1332L1631.5 65.3665L1631.7 65.7332L1631.97 66.0665L1632.14 66.2665L1639.37 74.8332C1643.94 80.2332 1650.6 83.3332 1657.67 83.3332C1660.4 83.3332 1663.07 82.8332 1665.64 81.9332L1667.54 84.1665C1665 87.6999 1664.84 92.5665 1667.77 96.0332C1671.27 100.167 1677.44 100.333 1681.54 96.8665C1683.24 95.3999 1684.34 93.4999 1684.84 91.4999C1686.9 91.3332 1688.97 90.5665 1690.67 89.1332C1694.77 85.6665 1695.64 79.5332 1692.14 75.3999L1692.2 75.4665ZM1636 63.0999C1635.77 62.8332 1635.6 62.4665 1635.47 62.0999C1635.4 61.9332 1635.34 61.7999 1635.27 61.5999C1635.2 61.3665 1635.17 61.0665 1635.14 60.7999C1635.1 60.5332 1635.04 60.2665 1635.04 59.9332C1635.04 59.6999 1635.07 59.4332 1635.1 59.1999C1635.1 58.7999 1635.17 58.3665 1635.27 57.8999C1635.34 57.6332 1635.44 57.3332 1635.5 57.0665C1635.64 56.5665 1635.77 56.0665 1635.97 55.5332C1636.2 54.8999 1636.5 54.2665 1636.84 53.6332C1637 53.2999 1637.14 52.9665 1637.34 52.6332C1637.8 51.8332 1638.34 51.0332 1638.87 50.2332C1639 50.0665 1639.1 49.8665 1639.24 49.6999C1640.7 47.6999 1642.5 45.7999 1644.54 44.0665C1644.57 44.0665 1644.6 43.9999 1644.64 43.9665C1644.87 43.7665 1645.07 43.6332 1645.3 43.4665C1647.17 41.9665 1649.17 40.6332 1651.17 39.5999C1651.37 39.4999 1651.54 39.4332 1651.74 39.3665C1652.64 38.9332 1653.54 38.5332 1654.4 38.2332C1654.77 38.0999 1655.1 38.0332 1655.44 37.9332C1656.17 37.6999 1656.9 37.4999 1657.64 37.3665C1657.84 37.3332 1658 37.2999 1658.17 37.2665C1658.8 37.1665 1659.37 37.0999 1659.94 37.0999C1660.04 37.0999 1660.14 37.0999 1660.24 37.0999C1660.87 37.0999 1661.4 37.1332 1661.94 37.2332C1662.1 37.2332 1662.27 37.2999 1662.44 37.3332C1662.84 37.4332 1663.24 37.5332 1663.57 37.6999C1663.64 37.7332 1663.74 37.7665 1663.8 37.7999C1664.24 38.0332 1664.64 38.3332 1664.9 38.6665C1666.1 40.0999 1666.17 42.7332 1665.07 45.8999C1663.64 49.9665 1660.44 54.2999 1656.27 57.8332C1652.1 61.3332 1647.3 63.7665 1643.04 64.4999C1639.74 65.0665 1637.14 64.5665 1635.94 63.1332L1636 63.0999ZM1643.24 71.6665L1641.5 69.6332C1642.3 69.5999 1643.1 69.5665 1643.97 69.3999C1649.14 68.4999 1654.67 65.7332 1659.57 61.5999C1664.47 57.4665 1668.1 52.4665 1669.84 47.5332C1670.1 46.7332 1670.34 45.9665 1670.5 45.1999L1672.2 47.1999C1678.97 55.1999 1677.97 67.1665 1669.97 73.8999C1666.4 76.8999 1662.07 78.3665 1657.74 78.3665C1652.34 78.3665 1647 76.0665 1643.24 71.6332V71.6665ZM1671.6 92.8665C1670.07 91.0665 1670.27 88.0665 1672.47 86.1999L1674.37 84.5999L1672.77 82.6999L1670.6 80.1332C1671.57 79.4999 1672.5 78.8332 1673.44 78.0665C1674.34 77.2999 1675.17 76.4999 1675.94 75.6332L1678.1 78.1999L1679.64 80.0332L1681.54 78.5665L1682.07 78.1665C1684.24 76.6665 1686.94 77.0665 1688.37 78.7332C1689.9 80.5332 1689.7 83.5332 1687.5 85.3999C1686.2 86.4999 1684.6 86.8332 1683.2 86.5665L1680.14 85.9665L1680.24 89.0999C1680.27 90.5332 1679.67 92.0665 1678.37 93.1332C1676.17 94.9999 1673.17 94.6999 1671.64 92.8999L1671.6 92.8665Z" fill="#FCFAF9"/>
<g clip-path="url(#clip10_1290_6238)">
<path d="M1823.1 66.667C1806.2 66.667 1792.44 52.9003 1792.44 36.0003C1792.44 35.267 1791.84 34.667 1791.1 34.667C1790.37 34.667 1789.77 35.267 1789.77 36.0003C1789.77 52.9003 1776 66.667 1759.1 66.667C1758.37 66.667 1757.77 67.267 1757.77 68.0003C1757.77 68.7337 1758.37 69.3337 1759.1 69.3337C1776 69.3337 1789.77 83.1003 1789.77 100C1789.77 100.734 1790.37 101.334 1791.1 101.334C1791.84 101.334 1792.44 100.734 1792.44 100C1792.44 83.1003 1806.2 69.3337 1823.1 69.3337C1823.84 69.3337 1824.44 68.7337 1824.44 68.0003C1824.44 67.267 1823.84 66.667 1823.1 66.667Z" fill="#FCFAF9"/>
</g>
<g clip-path="url(#clip11_1290_6238)">
<path d="M2002.64 67.0391L2002.64 88.0698L2044.1 88.0698L2044.1 107.972L1964.36 107.972L1964.36 88.0698L1981.42 88.0698L1981.42 67.0391L2002.64 67.0391Z" fill="#FCFAF9"/>
<path d="M2009.43 31.5524C2033.28 31.5524 2040.6 37.3537 2040.6 55.9594C2040.6 63.7466 2039.72 73.269 2037.74 84.6101L2015.14 82.875C2016.45 72.6627 2016.96 67.9068 2016.96 63.224C2016.96 56.6493 2015.21 54.9141 2007.45 54.9141C1999.69 54.9141 1989.97 55.7817 1969.56 57.8513L1967.87 35.8694C1983.89 33.0158 1997.65 31.542 2009.43 31.542L2009.43 31.5524Z" fill="#FCFAF9"/>
<path d="M1959.39 29.3154L1937.96 29.3154L1937.96 82.4254L1959.39 82.4254L1959.39 29.3154Z" fill="#FCFAF9"/>
<path d="M1907.72 28.0293C1923.53 28.0295 1936.35 39.5043 1936.35 53.6592C1936.35 67.814 1923.53 79.2888 1907.72 79.2891C1891.92 79.2891 1879.1 67.8142 1879.1 53.6592C1879.1 39.5042 1891.92 28.0293 1907.72 28.0293ZM1907.82 42.1924C1907.81 42.0779 1907.65 42.0779 1907.64 42.1924C1906.94 48.1399 1902.22 52.8651 1896.28 53.5654C1896.16 53.5762 1896.16 53.7324 1896.28 53.7432C1902.22 54.4435 1906.94 59.1678 1907.64 65.1152C1907.65 65.2302 1907.81 65.2302 1907.82 65.1152C1908.52 59.1678 1913.24 54.4435 1919.18 53.7432C1919.29 53.7327 1919.29 53.5759 1919.18 53.5654C1913.24 52.8651 1908.52 48.1399 1907.82 42.1924Z" fill="#FCFAF9"/>
<path d="M1913.93 107.24C1916.33 101.115 1919.31 96.4737 1920.58 96.8814C1921.8 97.2681 1921.01 102.17 1918.83 107.982L1955.97 107.982C1955.97 93.5679 1939.37 81.8818 1918.88 81.8818C1898.39 81.8818 1881.8 93.5574 1881.8 107.972L1913.65 107.972C1913.74 107.731 1913.82 107.48 1913.93 107.23L1913.93 107.24Z" fill="#FCFAF9"/>
</g>
<g clip-path="url(#clip12_1290_6238)">
<path d="M2164.1 66.667C2147.2 66.667 2133.44 52.9003 2133.44 36.0003C2133.44 35.267 2132.84 34.667 2132.1 34.667C2131.37 34.667 2130.77 35.267 2130.77 36.0003C2130.77 52.9003 2117 66.667 2100.1 66.667C2099.37 66.667 2098.77 67.267 2098.77 68.0003C2098.77 68.7337 2099.37 69.3337 2100.1 69.3337C2117 69.3337 2130.77 83.1003 2130.77 100C2130.77 100.734 2131.37 101.334 2132.1 101.334C2132.84 101.334 2133.44 100.734 2133.44 100C2133.44 83.1003 2147.2 69.3337 2164.1 69.3337C2164.84 69.3337 2165.44 68.7337 2165.44 68.0003C2165.44 67.267 2164.84 66.667 2164.1 66.667Z" fill="#FCFAF9"/>
</g>
<defs>
<clipPath id="clip0_1290_6238">
<rect width="80" height="80" fill="white" transform="translate(45.1016 28)"/>
</clipPath>
<clipPath id="clip1_1290_6238">
<rect width="165" height="79.9419" fill="white" transform="translate(173.102 28.0293)"/>
</clipPath>
<clipPath id="clip2_1290_6238">
<rect width="80" height="80" fill="white" transform="translate(386.102 28)"/>
</clipPath>
<clipPath id="clip3_1290_6238">
<rect width="80" height="80" fill="white" transform="translate(514.102 28)"/>
</clipPath>
<clipPath id="clip4_1290_6238">
<rect width="80" height="80" fill="white" transform="translate(770.102 28)"/>
</clipPath>
<clipPath id="clip5_1290_6238">
<rect width="80" height="80" fill="white" transform="translate(898.102 28)"/>
</clipPath>
<clipPath id="clip6_1290_6238">
<rect width="165" height="79.9419" fill="white" transform="translate(1026.1 28.0293)"/>
</clipPath>
<clipPath id="clip7_1290_6238">
<rect width="80" height="80" fill="white" transform="translate(1239.1 28)"/>
</clipPath>
<clipPath id="clip8_1290_6238">
<rect width="80" height="80" fill="white" transform="translate(1367.1 28)"/>
</clipPath>
<clipPath id="clip9_1290_6238">
<rect width="80" height="80" fill="white" transform="translate(1495.1 28)"/>
</clipPath>
<clipPath id="clip10_1290_6238">
<rect width="80" height="80" fill="white" transform="translate(1751.1 28)"/>
</clipPath>
<clipPath id="clip11_1290_6238">
<rect width="165" height="79.9419" fill="white" transform="translate(1879.1 28.0293)"/>
</clipPath>
<clipPath id="clip12_1290_6238">
<rect width="80" height="80" fill="white" transform="translate(2092.1 28)"/>
</clipPath>
</defs>
</svg>
